<?xml version="1.0" encoding="UTF-8"?>
<svg xmlns="http://www.w3.org/2000/svg" viewBox="0 0 357.1 582.01">
  <defs>
    <style>
      .cls-1 {
        fill: #fff;
      }

      .cls-2 {
        fill: #be1e2d;
      }

      .cls-3 {
        fill: #eecd96;
      }

      .cls-4 {
        fill: #00a79d;
      }

      .cls-5 {
        fill: #f7941d;
      }

      .cls-6 {
        fill: #7f3f98;
      }
    </style>
  </defs>
  <g id="Black">
    <path d="M58.1,27.26c-.17,.22-.25,2.17-.26,2.38-.11,1.35-1.22,7.24-3.54,11.47-8.3,15.1-30.04,18.71-43.98,8.04C.24,41.43-2.49,29.1,2.28,17.22,6.4,6.93,15.25,.87,26.17,.09s23.39,4.16,28.33,14.8c.53,1.14,1.3,3.06,1.74,4.6s.68,2.15,1.11,2.06c5.86-1.14,21.5-3.41,21.89-3.81,.26-.16,9.99,9.16,10.78,9.36,.33,.08,11.85-20.69,12.69-20.67,6.98,.21,40.9,1.59,44.09,1.59,.16,0-2.41,24.61-1.16,30.87,1.59,7.93,14.26,27.74,16.7,31.82,.95,1.59,5.32-3.29,10.36-2.43,8.04,1.37-1.37,16.28,2.11,17.87,1.72,.78,7.52,4.29,11.63,9.09,4.33,5.07,2.48,10.11,3.33,10.2,7.29,.79,17.99,15.42,19.08,14.75,5.18-3.17,8.29-5.61,13.42-6.56s10.47,.52,14.4,3.73c5.98,4.88,8.63,13.04,8.21,20.75-.29,5.33-.95,10.47-4.53,14.43-3.01,3.33-8.5,6.64-13,6.66-1.57,0-10.02-3.05-9.99-.48,.16,14.75-6.82,31.08-22.36,36.63-1.69,.6,18.49,.82,24.34,.71,1.24-.02,5.95-1.68,6.11-2.62,1.27-7.61,7.87-11.48,14.35-10.9,5.57,.5,10.94,5.09,11.97,10.59s-2.36,11.43-7.37,13.91c-3.07,1.52-6.75,1.64-9.98,.55-1.72-.58-7.59-5.42-7.39-6.69,.04-.25-2.35,.96-3.01,1.27-3.82,1.81-7.63,3.59-8.8,4.28-1.51,.79-11.79,5.85-11.66,5.87,21.65,2,42.13,14.18,58.04,28.39,2.11,1.88,4.04,3.39,6.03,5.39,1.04,1.04,2.81,2.72,3.81,3.81,1.27,1.37,2.28,3.69,3.01,3.81,1.11,.18,3.56-4.58,4.6-5.55,2.02-1.89,4.02-3.43,6.34-4.92,2.57-1.64,5.38-2.76,8.41-2.38,1.92,.24,4.65,1.76,5.07,3.65,.46,2.04-.45,3.98-1.27,5.71-1.07,2.26-3.54,4.44-3.17,6.82,5.82-1.11,9.65-5.47,11.26-.79,.36,1.06,.41,2.61,0,3.65-.82,2.09-2.38,4.6-3.96,6.19-.73,.73-5.6,2.45-4.76,2.7,4.06,1.2,6.76,1.9,10.55,3.83,3.38,1.71,6.5,4.16,8.42,7.42,1.11,1.88,1.65,4.16,.97,6.24-1.39,4.24-4.63,3.79-7.49,3.1-1.9-.46-3.58-1.5-5.12-2.68-1.24-.94-3.15-1.81-4.11-3.01,.13,1.53,1.66,2.38,2.47,3.54,1.26,1.81,2.37,3.84,3.47,5.76,2.25,3.9,4.19,8.05,4.96,12.52,.29,1.71,.4,3.48-.03,5.15s-1.46,3.26-3,4.04c-2.3,1.17-5.25,.29-7.11-1.5s-2.83-4.32-3.5-6.81c-.99-3.67-1.69-7.4-3.82-10.64,1.07,3.45,1.76,6.43,2.38,9.99,.44,2.54,.56,5.8-.18,8.27s-2.58,4.74-5.07,5.42c-2.76,.76-5.8-.58-7.64-2.78s-2.62-5.1-2.88-7.95c-.43-4.66,1.15-10.63-2.47-14.37,.32,.33-.99,3.53-1.11,4.02-.48,1.93-1.09,3.86-2.23,5.51-1.58,2.3-4.4,3.97-7.12,3.36-2.47-.56-4.25-2.91-4.77-5.39-.58-2.79,.05-8.09,1.75-10.52-3.57,5.1-10.86,9.77-17.29,9.44-2.36-.12-4.83-1.44-5.56-3.69-.46-1.41-.17-2.99,.52-4.31s1.73-2.41,2.82-3.41c1.76-1.61,4.77-3.72,2.98-6.05-1.41-1.84-4.28-2.03-4.79-4.54-.66-3.3,1.05-6.16,3.62-8.05,.59-.43,7.05-2.76,7.7-2.08-7.92-8.25-18.27-16.61-27.93-22.7-4.86-3.06-9.87-5.86-15-8.43-2.54-1.27-5.11-2.49-7.71-3.64-2.2-.98-3.91-2.46-5.94-3.75-.14-.09-.42-.2-.52-.33,4.23,5.63,7.97,10.48,12.7,15.69,1.82,2,4.08,6.69,6.89,6.8,4.52,.19,7.55-1.61,11.3-.19s6.72,4.69,7.83,8.46c1.47,5-.42,10.81-4.55,13.99-4.13,3.18-10.22,3.53-14.69,.84-2.77-1.67-4.81-4.44-5.73-7.53s.32-7.01-1.59-9.69c-1.3-1.83-3.15-3.02-5.07-4.12-2.96-1.69-12.14-6.65-10.73-5.07,4.36,4.88,15.91,39.32,23.1,71.89,1.41,6.39,2.72,13.58,3.81,19.45,2.51,13.5,2.76,23.64,2.33,29.81-.15,2.15,11.95-14.06,12.9-13.96,11.84,1.27,121.59,10.36,121.37,10.78-.47,.95-65.97,100.02-69.36,103.82-.7,.79-5.71-1.93-5.71,1.06,0,10.15-1.69,103.05-1.69,105.73,0,1.27-70.77,4.46-71.37,4.44-2.3-.08-78.34-12.16-78.34-12.37,0-.37-.63-105.21-.63-114.18,0-2.11,45.64,.08,50.75-1.11,.46-.11-2.06-55.29-2.06-57.57,0-1.32-2.98-1.57-3.73-1.62-4.72-.32-4.84-5.2-8.01-7.58-3.81-2.85-13.22-5.76-8.25-15.38,1.87-3.62,4.92-3.93,7.14-6.66,1.73-2.13,.57-4.99,1.11-7.61,.86-4.21,6.03-7.14,10.47-6.82,.16,.01-.53-8.08-.63-11.58-.32-.75-4.85,1.01-5.55,.95-5.39-.42-5.39-4.86-7.61-6.98-3.41-3.25-11.1-3.17-10.47-12.21,.42-6.01,6.09-6.82,7.93-11.74,1.27-3.38,.16-5.31,1.9-9.2,1.44-3.21,6.26-4.26,6.19-4.76-.16-1.04-.13-4.69-.79-4.76-2.22-.24-4.16-1.46-5.71-3.17-1.3-1.43-1.71-2.46-3.33-3.49s-3.04-2.29-4.49-3.66c-2.47-2.34-5.81-5.37-5.29-9.02,.79-5.55,7.53-9.08,8.99-12.69,.67-1.67,2.11-4.65,1.48-6.56-.84-2.54-2.97,1.4-3.7,2.33-3.08,3.86-5.28,8.07-7.3,12.58-.84,1.89-2.38,4.29-1.8,6.34,.62,2.17,2.03,3.75,2.33,6.03,.44,3.43-.43,7.57-2.64,10.26-3.53,4.28-11.05,5.32-16.07,2.96s-8.16-7.88-7.08-13.32c1.8-9.09,8.69-10.27,15.44-10.63,1.14-.06,11.23-26.2,9.52-27.44-2.17-1.56-15.44,12.69-22.52,17.55-1.12,.77-4.22,1.41-4.44,2.64-.55,3.04,1.78,3.62,.95,8.35-1.72,9.8-15.92,13.85-22.73,6.03-3.2-3.68-3.95-9.95-1.69-14.27,2.96-5.66,11.01-8.51,16.81-5.92,2.33,1.04,4.97-2.96,9.2-7.08-10.68,4.33-24.73,2.8-35.74,.11-7.5-1.84-14.64-5.29-21.57-8.67-6.35-3.1-13.11-5.75-18.29-10.68-.62-.59-1.26,3.48-2.33,4.65-1.69,1.86-4.25,3.65-6.77,3.28-1.65-.25-3.17-1.49-4.12-2.85-.19-.27-2.3-3.73-2.54-3.49-1.98,1.97-1.9,4.21-3.07,6.66-.88,1.85-2.28,3.88-4.02,4.97s-4.13,1.26-5.87,.19c-1.09-.67-1.8-1.85-2.27-3.05-.17-.42,.61-3.22,.85-3.28-2.58,.66-4.98,2.67-7.61,3.17-1.98,.38-4.04-.81-5.07-2.54-1.07-1.78-.27-4.26,.63-6.13,2.54-5.27,7.05-9.09,12.69-10.68-1,.28-4.14-1.98-5.07-2.64-1.75-1.24-3.6-2.56-5.07-4.12-2.67-2.82-4.66-7.22-2.91-11.21,2.3-5.22,4.48-1.31,4.92-5.87,.74-7.77,4.64-8.53,4.55-9.99-.21-3.38-.9-4.13-1.27-6.66-.47-3.22-.37-8.62,.55-11.8,.7-2.41,2.19-4.68,4.41-5.86s5.19-1.05,7.04,.65c1.44,1.33,2.45,3.36,2.91,5.27,1.13,4.69,1.79,8.99,2.54,13.74,.37,2.35,.74,7.32,3.91,7.51,2.44,.14,1.43-6.28,1.48-7.61,.14-3.48,.63-7.05,3.84-9.2,2.21-1.48,5.3-1.51,7.53-.06,2.64,1.71,3.79,5.01,4.16,8.14,.37,3.1,.54,6.82,.55,9.9,0-.09,5.96-2.66,6.56-2.85,2.83-.94,6.39-1.3,9.41-1.06,3.87,.32,6.55,2.94,7.19,6.77,.91,5.5-4,9.99-8.25,12.05-1.16,.56-6.02,3.38-7.08,3.17,2.93,.59,18.35,7.72,30.03,12.05,8.03,2.98,16.92,5.07,24.21,6.34,9.67,1.68,16.55,1.83,16.28,1.53-5.07-5.71-4.63-16.28-4.55-16.65,.27-1.28-19.56,0-31.3-9.2-2.97-2.33-5.84-5.73-7.61-8.99-1.14-2.08-1.65-7.41-4.33-7.61-1.47-.11-3.13,.45-4.55,.85-4.76,1.34-9.98-.63-13-4.55s-4.71-9.48-5.39-14.38c-.6-4.28-.61-9.23,.42-13.43s3.48-7.86,7.08-10.26c4.91-3.26,13.25-2.16,16.18,2.22,.56,.83,4.18-6.75,5.81-10.68,.53-1.27-14.35,.79-14.8-.11-.32-.63,.93-16.22,.42-17.34-2.85-6.34-11.66-15.97-6.03-20.51,2.45-1.97,11.08-.94,10.89-3.17-2.33-27.49,6.39-36.68,5.5-38.7-3.17-7.19-6.34-16.18-13.64-27.07-.72-1.07-4.76-.78-8.25-.74s-6.07-1.31-6.34-.95Z"/>
  </g>
  <g id="Gold_bells" data-name="Gold bells">
    <path class="cls-5" d="M121.34,267.43c0,6.04-5.11,10.94-11.42,10.94s-11.42-4.9-11.42-10.94,5.11-10.94,11.42-10.94,11.42,4.9,11.42,10.94Zm15.39,3.23c-6.31,0-11.42,4.9-11.42,10.94s5.11,10.94,11.42,10.94,11.42-4.9,11.42-10.94-5.11-10.94-11.42-10.94Zm86.74-17.37c-6.31,0-11.42,4.9-11.42,10.94s5.11,10.94,11.42,10.94,11.42-4.9,11.42-10.94-5.11-10.94-11.42-10.94Zm15.19-68.9c-6.31,0-11.42,4.9-11.42,10.94s5.11,10.94,11.42,10.94,11.42-4.9,11.42-10.94-5.11-10.94-11.42-10.94Z"/>
  </g>
  <g id="White">
    <g id="Sleeve_2" data-name="Sleeve 2">
      <path class="cls-1" d="M1.85,27.63C1.85,13.47,13.96,1.99,28.9,1.99s27.04,11.48,27.04,25.64-12.11,25.64-27.04,25.64S1.85,41.79,1.85,27.63ZM63.6,206.04c4.27-1.75,8.95-4.56,11.05-8.93,1.41-2.93-.18-7.18-2.85-8.41-5.28-2.41-18.56,2.22-19.19,5.6-1.29,6.86-4.71,14.61-7.4,20.19-3.95,8.22-11.73,9.59-18.71,7.72-7.45-2-14.39,2.8-18.12,8.91-.7,1.14-1.31,2.4-1.33,3.74s.69,2.77,1.95,3.21c1.28,.45,2.67-.19,3.87-.84,1.87-1.03,2.95-1.5,4.89-2.39,.95-.44,1.51-.59,2.62-.63,.12-.04,.6,1.2,0,2.14-.77,1.22-1.51,2.87-.87,4.16,.63,1.27,2.79,1.87,4.16,1.55,1.38-.32,2.71-1.36,3.49-2.54,.77-1.18,1.76-2.9,2.3-4.2,.05-.11,1.91-5.23,3.49-6.77,.53,.11,2.48,4.1,2.75,4.44,1.02,1.28,1.94,2.49,3.54,3,2.6,.83,5.25-2.43,6.4-4.9,3.01-6.49,3.27-8.89,4.92-14.48,2.62-8.93,7.21-8.17,13.06-10.57Zm240.75,50.27c-.07-.1-.15-.19-.24-.27-1.19-1.01-4.94,1.12-6.16,1.63-1.57,.66-3.68,1.69-5.11,.2-1.89-4.66,7.43-9.62,3.81-14.02-1.77-2.15-6.29-.8-8.42,.16-2.79,1.26-7.38,5.53-9.17,7.97-4.02,5.5-6.34,9.46-10.15,12.21-5.28,3.81-8.09,4.18-13.96,6.34-2.09,.77-4.48,.33-6.39,1.52-1.48,.93-3.62,3.1-3.72,4.93-.05,1,.53,1.95,1.27,2.62s1.65,1.15,2.48,1.7c1.1,.73,2.46,1.98,2.5,3.4,.06,2.3-1.73,3.5-3.54,4.43-2.66,1.35-6.34,6.4-3.27,9.04,2.53,2.18,8.37,.05,10.86-1.27,3.72-1.98,6.93-4.98,9.56-8.25,1.84-2.28,.39-5.35,.57-7.94,.35-4.93,4.32-7.97,7.93-10.7,2.31-1.75,4.98-3.12,7.88-3.55,3.14-.47,5.99,.54,9.03,1.11,6.41,1.2,13.29-3.17,14.5-9.76,.09-.52,.02-1.09-.27-1.51ZM123.97,144.3c0,6.13-4.83,11.1-10.78,11.1s-10.78-4.97-10.78-11.1,4.83-11.1,10.78-11.1,10.78,4.97,10.78,11.1Zm-5.08,1.69c0-2.1-1.7-3.81-3.81-3.81s-3.81,1.7-3.81,3.81,1.7,3.81,3.81,3.81,3.81-1.7,3.81-3.81Zm-41.02-12.16c8.67-.63,14.85-1.31,23.06-1.31-3.53-2.91-6.22-5.12-9.28-7.65,2.59-2.05,4.59-3.64,6.54-5.18,3.26,3.01,6.3,5.76,9.29,8.58,4.3,4.05,7.28-.76,14.58-1.1,13.64-.63,10.19-3.97,13.84-10.39,.65-1.15,1.42-2.23,2.16-3.33,4.29-6.39,4.44-6.39,10.01-.29-2.48,2.29-5.28,3.86-8.14,7.99,2.66-.08,20.18-9.2,25.16-11.52,4.76-2.22,11.64-4.77,16.28-5.39,4.76-.63,6.66,.21,5.39-3.81-2.48-7.85-10.47-9.2-14.91-13.32-2.01-4.86,3.91-10.04,0-11.74-5.55-1.27-9.2,6.34-22.52,7.82-4.02,.45-9.34,1.02-17.02,3.07-3.32,.89-5.5,3.15-8.46,4.76-3.26,1.78-7.34,3.24-10.89,4.33-2.8,.87-6.09,1.3-8.99,1.59-5.4,.54-5.33,5.24-18.93,6.34-4.55,.37-8.99,1.16-12.79,3.7,1.27,2.85,6.13,10.31,6.13,12.16,0,.32-.32,10.36-.53,14.7Zm116.09,255.12c3.27-4.76-1.41-9.22,.21-13.53,1.3-3.46,4.1-5.52,3.65-9.54-.66-6.02-6.82-5.76-11.66-8.09-4.5-2.17-5.47-6.98-11.46-5.14-3.72,1.14-7.64,5.22-6.3,9.37,1.59,4.88-4.69,7-7.23,9.89-1.39,1.58-2.36,3.63-2.2,5.73,.17,2.2,1.62,4.18,3.49,5.35,4.4,2.73,5.66,1.44,8.36,6.23,1.95,3.45,3.68,3.35,5.94,3.97,1.59,.43,3.72,1.28,5.87,.75,4.44-1.11,8.99-1.59,11.31-4.97Zm-31.3-104.03c1.63,1.7,2.97,3.17,5.81,3.7,3.78,.7,6.42-1.42,9.83-2.33,3.04-.81,6.39-1.12,7.69-4.35,1.58-3.92-2.47-8.06-.98-12.04,1.3-3.46,2.59-5.22,1.27-9.04-2.14-6.18-3.76-5.49-7.43-8.49-2.99-2.45-4.98-4.8-9.33-4.57-2.85,.15-5.33,1.27-6.98,3.59-1.9,2.67-1.13,5.12-2.33,7.82-1.2,2.71-4.32,5.01-6.24,7.19-1.39,1.58-3.02,3.62-2.85,5.71,.39,4.97,4.71,7.25,8.35,9.83,1.25,.89,2.22,1.96,3.17,2.96Zm3.81,49.5c1.95,3.45,3.62,4.27,5.94,3.97,1.42-.18,3.07-.79,5.18-1.46,4.28-1.37,5.52-.38,8.86-4.69,3.81-4.92,2.02-5.99,3.65-10.31,1.3-3.46,3.49-8.09,2.22-10.94-1.43-3.21-9.5-2.56-13.16-5.55-3.87-3.16-4.6-8.56-9.99-7.45-3.81,.78-6.07,4.71-5.55,9.04,.58,4.81-4.27,7.21-6.8,10.1-1.39,1.58-2.36,3.63-2.2,5.73,.17,2.2,1.62,4.18,3.49,5.35,4.4,2.73,5.66,1.44,8.36,6.23Zm90.87-67.05c-2-.17-17.7-15.66-28.07-21.89-6.34-3.81-22.83-12.16-26.17-13.8-.96-.47-7.06-3.81-7.06-5.15,0-.95,4.52-13,4.52-13,7.61,.42,21.45,2.96,33.78,10.55,16.49,10.15,37.82,25.82,38.54,32.04,.48,4.12-11.89,11.58-15.54,11.26Zm-48.93-34.57l14.83-2.54-9.04-13-15.07,2.46,9.28,13.08Zm38.06,10.78l-8.09-13.96-15.46,1.03,8.25,14.04,15.3-1.11Zm5.31,15.46l14.83,2.3-4.76-15.07-14.99-2.38,4.92,15.15Zm-101.81-121.08c0,6.13-4.83,11.1-10.78,11.1s-10.78-4.97-10.78-11.1,4.83-11.1,10.78-11.1,10.78,4.97,10.78,11.1Zm-5.08,1.69c0-2.1-1.7-3.81-3.81-3.81s-3.81,1.7-3.81,3.81,1.7,3.81,3.81,3.81,3.81-1.7,3.81-3.81Zm73.27,201.3c3.49,21.25,3.38,74.54,3.38,115.45,0,1.27-10.57-.85-37.22-1.69-.42-.01-2.91-57.3-3.12-58.57-.13-.77,1.74,.63,6.03-1.11l5.71,7.77,6.5-12.69-2.54-4.12c.2-2.47-.68-4.26-1.11-6.66-.64-3.57,.28-4.59,2.38-7.3,1.94-2.5,1.9-8.56-.79-11.1-3.01-2.54-7.93-3.81-9.67-4.6-1.35-.61-2.9-2.66-5.07-3.96-.96-.58-2.02-.72-2.7-1.59-.21-.27-1-12-.79-12.21,.79-.79,2.01-.53,3.01-.79,1.14-.3,1.77-.54,2.7-1.27,0,0-2.06,4.12-2.06,4.12l7.93,11.1,6.5-12.85s-6.15-9.25-6.18-9.36c-.95-2.7,.63-5.39,1.11-7.61,.8-3.72,2.84-7.22,1.9-11.26-.63-2.75-2.78-2.82-4.12-3.49-2.12-1.06-7.3-1.27-9.36-3.17-2.51-2.32-4.94-5.48-6.82-6.82-1.11-.79-2.65-.69-2.62-.69,.04,0-1.03-5.44-.4-5.65l4.6-1.43-1.43,6.03,10.31,8.88s3.33-13.8,3.33-13.8c.11-.47-3.36-3.58-3.81-4.12,1.35-1.3,2.53-1.13,3.81-2.7,.75-.92,1-3.38,.79-4.44-.68-3.4-2.03-4.3-1.74-7.77,.01-.16,1.31-.95,1.43-.95l4.62,3.52,3.73-13.99-10.99-9.16-.75,3.35c-.53-.21-.89-.3-.89-.3-.92-.42-1.88-1.51-2.59-2.04-3.36-2.49-5.07-4.55-5.07-4.55,1.27,0,14.06,.11,14.8,.95,8.88,10.15,24.54,75.95,27.28,92.62Zm-9.52,36l-6.66,12.53,7.77,11.26,6.5-12.53-7.61-11.26Zm6.66-14.43l-7.93-10.94-6.34,12.69,7.77,10.94,6.5-12.69Zm-14.91-63.59l3.01-14.59-10.47-9.2-3.17,14.43,10.63,9.36Zm3.97,24.94l5.22-13.2-8.72-10.31-5.39,13.32,8.89,10.19Zm2.85,25.65l6.34-12.85-8.41-10.63-6.18,12.69,8.25,10.78Zm-20.93,66.77l8.25,11.26,6.34-12.85-7.93-10.78-6.66,12.37Zm16.65,23.63l-8.09-10.63-6.66,12.37,7.93,10.94,6.82-12.69Zm0-24.9l8.09,10.94,6.5-12.53-7.93-10.78-6.66,12.37Zm16.02,24.11l-7.77-11.26-6.34,12.53,7.61,11.26,6.5-12.53ZM126.03,246.11c-1.14,1.27-14.01,6.03-32.83,2.22-8.07-1.63-17.97-6.29-26.01-9.73-7.93-3.39-18.03-10.01-17.97-10.57,.69-7.3,3.96-15.49,6.71-17.44,1.57-1.12,3.7-1.26,5.5-.58,8.4,3.19,23.27,10.53,32.09,13.37,9.2,2.96,28.12,7.19,38.06,6.87,.44-.01-1.43,11.26-5.55,15.86Zm-49-17.13l-9.99-12.21-15.07,3.33,10.31,12.37,14.75-3.49Zm25.22,7.93l-10.78-11.58-14.59,4.12,10.78,11.89,14.59-4.44Zm25.85,3.01l-12.05-9.67-13.64,6.34,12.05,9.99,13.64-6.66Z"/>
    </g>
  </g>
  <g id="Red">
    <path class="cls-2" d="M174.19,71.77c.6,3.12-5.26,.89-8.88,3.17-5.71,3.59-6.45,5.18-17.55,6.34-7.68,.8-14.11,1.14-21.36,5.71-6.87,4.33-14.15,7.51-20.04,7.51-7.61,0-7.67,4.81-15.7,5.87-6.01,.79-16.57,3.12-18.79,4.52-2.01,1.27-2.83-1.48-1.67-4.76,1.13-3.18,11.57-1.21,12.13-3.49,.87-3.57,0-10.63,.87-16.57,.75-5.11,1-9.36,1.74-12.53,1-4.3,3.33-9.83,3.65-8.88,.76,2.29,8.94,15.74,9.04,15.54,.95-1.9,10.63-15.22,10.78-15.3,.26-.13,38.54-6.56,38.48-6.79-.11-.42-.74-1.02-.74-1.69,0-.21-38.93,6.42-38.7,6.34,.34-.11-9.26,13.43-9.67,14.11-.63,1.06-20.35-39.38-22.57-42.87-2.22-3.49-16.49,.42-17.76-4.23,0,0,21.28-4.3,21.36-4.23,.34,.34,11.21,11.2,12.32,10.1,.58-.58,9.72-16.61,12.42-20.67,.85-1.27,41.05,.53,41.02,1.06-.32,6.43-3.02,25.15-.32,32.14,1.8,4.65,17.44,31.72,17.66,31.51s11.31-6.87,12.26-1.9Zm30.43,343.19l6.28,8.91,5.22-10.29-6.28-8.91-5.22,10.29Zm-6.47-24.46l-1.86-2.76-2.85,4.6-4.92,2.38,4.18,5.91,5.45-10.13Zm-10.64-121.85c1.62,1.19,3.21,2.44,4.81,3.65l2.69-11.97-8.81-7.55-.59,3.07c-.04,.19,1.36,1.86,1.5,2.14,.51,1.02,.87,2.11,1.09,3.23,.52,2.73-.4,4.81-.68,7.43Zm-59.7-113.05c-4.52,1.65-6.94,6.4-5.4,10.62s6.45,6.3,10.97,4.66c4.52-1.65,6.94-6.4,5.4-10.62-1.54-4.22-6.45-6.3-10.97-4.66ZM54.05,220.88l8.64,10.21,12.36-2.69-8.64-10.21-12.36,2.69Zm50.1,16.09l10.53,8.14,11.47-5.19-10.53-8.14-11.47,5.19Zm156.48,10.62l-11.92-1.96,4.08,12.11,11.92,1.96-4.08-12.11Zm-59.39-27.02l7.74,10.57,12.26-1.79-7.74-10.57-12.26,1.79Zm12.68,142.26l-6.28-8.91-5.22,10.29,6.28,8.91,5.22-10.29Zm-5.5-51.9l-7.23-8.4-4.27,10.92,7.23,8.4,4.27-10.92Zm-12.58,28.15l-5.91-8.71-2.8,5.11-2.8,5.11,6.4,8.85,5.1-10.36Zm-13.68-52.21l-5.23,1.22-1.89,6.97,8.73,7.59,2.77-11.92-4.38-3.87Zm7.68,154.73l6.28,8.91,5.22-10.29-6.28-8.91-5.22,10.29Z"/>
  </g>
  <g id="Tan">
    <path class="cls-3" d="M208.97,127.17c5.35,11.6,8.32,27.49,5.71,40.28-3.33,16.34-11.52,25.53-43.24,34.57-2.05,.58-1.26-.11-3.81-4.65-3.09-5.52-7.04-10.35-10.15-15.86-3.02-5.34-6.67-9.77-11.42-13.74-1.92-1.6-4.13-1.34-6.45-.89,1.64-4.18,.75-8.53-2.8-11.63-3.12-2.73-8.35-2.01-11.89,.16-6.16,3.77-6.03,13.48-.32,16.65,2.06,1.14-1.37,1.64-2.43,3.75-2.45,4.89-3.32,12.44-1.9,17.76,.43,1.6,6.29,16.39,6.13,16.28-12.05-.85-25.56-3.61-33.09-11.31-5.92-6.05-9.7-23.52-8.88-38.06,.54-9.6,3.71-16.64,8.14-22.31,2.51-3.22,8.88-4.44,13.11-4.44-.53,1.27-2.3,2.83-3.44,4.55-2.75,4.14-2.12,10.48,.88,14.27,5.79,7.31,18.7,5.26,21.92-3.57,1.65-4.52,.12-11.08-3.63-14.22-1.21-1.01-2.61-1.63-4.08-2.17-.38-.14-2.06-.69-2.36-.66,4.1-.39,15.44-3.07,17.55-4.12,1.1-.55-8.87,4.72-5.18,14.48,2.39,6.32,9.14,10.06,15.8,7.86,7.88-2.61,10.81-11.81,6.68-18.81-1.39-2.36-3.77-4.88-6.43-5.83-1.12-.4-4.94-.88-5.48-.71,2.44-.72,14.53-6.75,16.71-7.68,5.99-2.55,11.98-5.1,17.97-7.66,3.41-1.45,6.93-2.96,10.64-2.95,14.63,.04,21.68,11.88,25.73,20.66Zm-51.74,57.89c-4.84,.94-8.77,2.57-11.41,6.85-3.46,5.62-6.98,6.27-12.64,2.76-2.22-1.38-4.84-2.93-7.31-3.59-1.89-.51-4.48-1.78-3.8,1.2,0,0,.16,2.35,.63,3.14,1.61,4.12,2.97,6.9,4.84,11.29,1.09,2.56,.99,5.91,2.03,12.81,1.25,6.27,5.83,10.02,11.98,11.86,15.23,4.55,33.74-11.38,26.47-27.49-2.84-6.3-6.72-13.65-10.78-18.82Zm-75.28-18.21c-.18-6.73-2.15-5.94-8.65-8.14,3.09-3.3,5.94-1.4,8.62-.64,3.03-7.74,2.35-9.32-1.41-11.55-6.65-4.98-13.96-.63-16.81,6.66-2.31,8.49-1.63,19,2.54,26.64,2.52,4.62,9.7,6.61,14.59,5.07,2.13-.67,3.49-2.22,2.28-7.31-.83-3.48-1.06-7.14-1.16-10.74Zm154.01-47.74c-5.69-4.76-12.94-4.58-19.35-1.59-2.74,1.28-5.97,3.05-6.51,6.36-.16,1,1.88,8.11,2.91,7.54,4.11-2.27,8.14-6.06,12.43-1.78-3.01,.76-5.45,2.51-8.55,3.66-.97,.36-2.95,1.22-2.76,2.25,1.16,6.43,2.67,12.8,4.16,19.64,7.33,2.52,15.53,2.23,20.72-4.23,3.08-3.83,4.42-8.84,4.48-13.75,.09-6.76-2.35-13.77-7.54-18.1Zm74.93,157.03c-5.28-3.5-11.41-4.89-17.54-6.09-5.52-1.08-11.7-2.41-17.01,.22-4.1,2.03-8.29,5.45-9.13,10.18-.45,2.56,.18,5.1-.09,7.62-.25,2.25-1.73,4.04-2.18,6.21-.47,2.26-.6,4.6-.36,6.9,.14,1.31,.43,2.7,1.35,3.64,1.43,1.46,3.96,1.3,5.61,.11,1.65-1.19,2.57-3.16,3.14-5.12,.17-.59,2.68-8.75,2.8-8.67,3.17,2.54,3.4,6.1,3.83,9.07,.66,4.51-.51,9.5,1.62,13.72,.96,1.91,2.63,3.52,4.68,4.11,2.06,.58,4.48-.01,5.8-1.7,1-1.28,1.27-2.98,1.4-4.6,.54-6.69-.57-13.67-3.81-19.54,5.07,3.28,4.63,4.14,6.48,9.52,1.32,3.84,2.04,11.08,7.04,11.82,2.42,.36,5.02-1.27,5.61-3.64,.32-1.28,.09-2.63-.18-3.92-2.03-9.91-11.82-23.24-13.88-25.19-.08-.08,1.28,.35,1.73,.55,.69,.31,1.34,.7,1.99,1.09,1.27,.77,2.51,1.49,3.75,2.31,2.63,1.75,5.54,3.37,8.78,3.52,.86,.04,1.8-.06,2.44-.63,.48-.43,.72-1.07,.86-1.7,.85-3.77-1.67-7.74-4.75-9.79ZM50.32,178.21c-.79-2.12-2.14-4.31-4.33-4.87-2.47-.63-5.05,1.21-6.08,3.54-1.6,3.6-.24,7.44-.47,11.18-.11,1.82-1.17,2.51-2.7,3.17-1.43,.62-2.11,.48-3.17-.79-2.14-2.57-2.5-3.14-3.17-6.34-1.26-5.98-1.22-12.48-4.01-18.03-.61-1.21-1.43-2.43-2.7-2.9-2.13-.8-4.42,.88-5.64,2.8-1.65,2.61-2.21,5.78-2.13,8.87,.15,5.92,.76,10.8,6.39,13.38,5.27,2.41,8.08,5.29,10.31,10.47,1.32,3.06,1.61,6.23-.82,8.8-1.28,1.36-3.39,2.56-3.49,4.45-.13,2.56,.34,3.51-1.19,4.68-3.58,2.72-8.19-.41-10.53-4.28,.28,.47,1.64,1,2.13,1.32,.77,.5,1.53,1.01,2.37,1.39,1.58,.72,3.42,1.1,4.74-.33,.81-.87,1.13-2.13,1.06-3.32-.27-4.37-4.33-6.38-7.49-8.64-1.99-1.42-3.64-3.25-4.65-5.44,2.6,2.02,9.38,7.47,12.92,9.59,.48,.29,.99,.57,1.55,.57,.99,0,1.76-.87,2.19-1.76,3.44-7.16-7.57-16.59-14.07-17.06-2.99-.22-3.45,3.76-4.02,5.86-.37,1.34-.08,3.62-.9,4.76-1.01,1.42-3.38,1.48-4.33,3.15-3.12,5.5,4.76,12.53,8.78,14.86,5.38,3.12,12.01,4.56,18.2,3.92,1.72-.18,3.72-1.36,4.77-2.71,2.2-2.84,4.12-5.98,5.69-9.22,4.21-8.67,8.04-19.08,5.51-28.79-.2-.76-.44-1.53-.72-2.28Zm81.88,7.77c3.41-2.07,8.22-3.4,12.12-2.04,4.05,1.41,10.66,1.02,11.69-1.91-4.16-5.04-8.39-14.55-16.28-13.63-5.02,5.72-8.4,4.67-12.58,5.08-5.02,2.45-5.78,10.27-5.55,14.7,4.7,1.23,6.65,.21,10.61-2.2Z"/>
  </g>
  <g id="Purple">
    <path class="cls-6" d="M208.39,462.82c.06,1.19-2.48,111.15-1.83,113.08,.1,.29-.5,1.94-.87,2.93-23.59-3.67-49.71-7.8-72.95-11.42,0-36.62-.63-73.35-.63-109.74,5.53,0,14.03-.51,18.93-.41,17.52,.37,35.04,.87,52.56,1.18,3.14,.06,4.61,.63,4.79,4.37Zm41.08-94.39c-1.27,2.54-19.07,32.86-19.88,35.1,.42,2.54,2.11,44.41,2.54,46.94,.04,.26,52.19,4.32,52.44,3.81,1.48-4.02,45.45-71.08,49.22-77.81-2.4-.16-81.78-8.04-84.32-8.04Zm-21.15,193.9l12.69-43.45-12.69-43.77-12.69,43.45,12.69,43.77Zm32.51,.32l12.74-43.45-12.58-42.34-13,41.87,12.85,43.93Zm91.51-193.48c-7.04,11.35-63.33,95.58-67.56,98.33,0,0-49.9-6.45-59.63-7.51-.3-.03-1.69-84.37-1.69-85.43,0-.87,10.95-12.98,12.16-14.91,8.32,.61,117.06,8.98,116.72,9.52Zm-66.29,87.86c.36-1.08,54.97-83.02,54.55-83.1-3.17-.63-91.86-8.79-92.19-8.46-.42,.42-22.25,36.35-22.2,37.22,.42,7.4,1.67,50.22,2.54,50.33,12.48,1.48,57.09,4.65,57.3,4.02Zm-6.98,12.26c-.63,2.54,.13,106.17-1.27,105.94-1.9-.32-66.85,5.38-67.24,3.81-.63-2.54,1.27-117.36,.63-118.31-.32-.49,68.11,7.64,67.88,8.56Zm-35.52,49.74l-15.22-51.65-15.65,51.17,15.65,52.86,15.22-52.39Zm33.62,.16l-16.29-50.42-15.58,50.26,15.59,50.7,16.28-50.54Z"/>
  </g>
  <g id="Green">
    <path class="cls-4" d="M223.17,200.78c-2.54,1.19-5,2.55-7.49,3.83-5.33,2.73-11.21,5.53-16.61,8.04-.29,.13-4.72,13.2-4.92,14.99-.32,2.85,19.8,23.97,21.07,25.56,.4,.5-3.55,5.41-3.91,4.97-3.62-4.45-8.5-6.96-13.66-9.26-3.81-1.69-7.65-3.12-11.82-3.31-4.64-.22-9.31-.33-13.92,.29-6.28,.83-13.12,2.99-16.97,8.29-4.08,5.62-6.64,10.85-9.39,17.21-.2,.46-5.18-1.9-4.86-2.22,1.15-1.15,11.91-28.8,9.3-29.92-4.44-1.9-16.33,14.75-28.55,20.62-.64,.31-3.82-3.03-3.38-3.59,1.92-2.49,5.2-4.79,7.98-7.77,2.22-2.38,4.76-7.3,5.55-9.52,1.94-5.44,1.64-9.08,2.01-8.83,1.96,1.32,2.07,1.38,4.44,2.33,4.76,1.9,15.54,2.11,21.99-1.69,6.45-3.81,9.72-9.66,11-15.01,1.06-4.44-.85-11.42-.85-11.42,8.83-1.11,20.72-7.14,23.74-7.3,4.02-.21,22.36,2.06,32.04-.63,.31-.09,.42,.74,.95,2.54,.07,.24-3.5,1.72-3.73,1.82Zm-29.51,76.49l-2.75,11.93,8.75,7.58,2.75-11.93-8.75-7.58Zm21.31,111.04l-6.13-8.99-5.37,10.19,6.13,8.99,5.37-10.19Zm-2.94-51.46l-6.58-8.75-4.92,10.49,6.58,8.75,4.92-10.49Zm-24.09,79.56l6.37,8.87,5.13-10.35-6.37-8.87-5.13,10.35ZM79,230.19l9.02,9.55,11.98-3.31-9.02-9.55-11.98,3.31Zm158.53,1.03l-12.32,.62,6.68,11.2,12.32-.62-6.68-11.2Zm-31.37,209.27l6.15,8.99,5.35-10.2-6.15-8.99-5.35,10.2Z"/>
  </g>
</svg>