<?xml version="1.0" encoding="UTF-8"?>
<svg xmlns="http://www.w3.org/2000/svg" viewBox="0 0 394.28 426.74">
  <defs>
    <style>
      .cls-1 {
        fill: #fff;
      }

      .cls-2 {
        fill: #e2c89a;
      }

      .cls-3 {
        fill: #231f20;
        stroke: #231f20;
        stroke-miterlimit: 10;
      }

      .cls-4 {
        fill: #ed1c24;
      }

      .cls-5 {
        fill: #75151c;
      }
    </style>
  </defs>
  <g id="Layer_1" data-name="Layer 1">
    <g id="Black">
      <path class="cls-3" d="M391.08,120.64l-.21-.13c-1.52-.76-3.16-1.23-4.84-1.41-7-1.1-28.95,.91-28.95,1,.05-.11,6-10.25,7.45-14.59,1.62-5,.59-11.51-3.83-14.73-4.75-3.47-10.35-2-14.56,1.4-4.83,4-7.16,8.28-9.68,13.48-1.39,2.87-5.09,11.27-3.33,14.38-24.36-43.02-54.11-80.02-96.42-106.15-22.54-13.93-44-21.57-66.61,.43,0,0-13.31-3.52-21.57-2.54s-19.86,5.49-26.85,9.73c-11.08,6.66-20.55,15.69-27.73,26.43-24.67,36-34.72,78.41-22.53,121,.85,3,1.9,5.91,2.77,8.88-.23-.79-4.93-2.76-5.89-3.26-5.7-2.96-14.1-2.53-17.95,3.2-2.89,4.31-2.21,9.59,.14,13.96,1.84,3.41,7.54,9.23,10.38,9.73,.17,.14-5.26,1.92-6.92,2.55-3.47,1.54-7.4,3.27-11.11,4.09-4.83,1.06-9.57-.3-14.08-1.99s-9.9-4.35-14.9-3.99c-4.8,.35-8.84,5.28-6.26,9.96,.6,1.09,2.57,2.45,2.62,3.74,.06,1.45-2.81,2.62-4.13,3.64-4.27,3.29-6.82,8.11-5.01,13.62s7.12,9.27,12.76,10.48,11.52,.19,17.03-1.51c8.33-2.58,16.18-6.42,24.5-8.93,.24-.07,2-.38,2-.43-5.32,6.47-10.63,13-15.5,19.79-2.57,3.46-4.94,7.07-7.1,10.8-1.61,2.88-3.71,6.75-3.4,10.17,.39,4.39,6.81,8.55,10.62,9.83,1.69-2.84,18.08-35.08,18-34.25-.07,.65-4.28,17.7-5.28,25.58-.46,3.64-3.82,19.45,0,21.57s7.82,3.6,12,5.71c.38-1.9,4.34-35.63,5.39-43,4.14,6.81,9.55,8.08,9.84,6.35,.31-1.91-.64-9.6-.64-10.15,4.13,5.76,14.75,12.21,15.86,12.37,.32-.16,0-11.61-.48-16.5-.15-1.74-.79-19.19-1.74-20.61,2.22,2.53,3.49,5.7,5.71,7.61,3.31,2.83,7.64,6.1,12.37,5.71,4.9-.41,9.6-5.32,10.47-10.15,.63-3.55-1.15-7.24-3-10.33-.6-1-9.52-12.18-10.21-11.77,4.87-2.93,27-11.11,27.07-11.84,.42,14.59,3,27.91-4.66,38.69-5.4,7.6-11.48,13.41-17.76,20.3-3.25,3.57-7.5,10-10.65,13.72-2.71,3.15-1.08,7.25,1,9.94,3.02,3.87,7.34,6.5,12.16,7.4,2.38,.61,4.83,.93,7.29,.95,1.78,0,3.26,.06,5-.06,1.66-.13,3.33,.13,4.87,.77,2.73,1.07,5.58,1.8,8.48,2.18,2.91,.31,5.79-.77,8.62-.37,1.31,.13,2.5,.83,3.25,1.92,.47,.86,.64,1.86,.47,2.83-.3,2-1.65,3.71-2.21,5.67-.73,2.57-1.4,5.15-2,7.74-1.33,5.18-2.49,10.39-3.46,15.63-1.63,8.43-2.89,16.94-3.78,25.48-.78,7.53-1.85,13.9-6.48,20.07-3.85,4.22-7.53,8.17-10.15,13.32-3,5.93-4.37,14.18-2.22,20.62,2.36,7,11.56,12.38,19,13.53,13.19,2,28.37-6.7,38.7-16.07,9.84-8.93,6.43-29.2,7.47-42,1.41-19.85,7.12-65.42,7.12-65.46,7,0,16-.52,16.18-.74-.32,.8-1.64,7.26-2,9.21-1.11,5.31-1.84,10.73-2.58,16.1-1.65,12-2.12,24.09-3.62,36.07-1.22,9.88-2.16,19.88-1.61,29.84,1,18.32,6.59,36.45,26.66,38.93,2.8,.36,5.63,.5,8.45,.43,9.42-.94,19.68-8,22.8-17.39s.88-20-.83-29.42c-4.92-27-7.3-57.88-11-85.14-.06-.45,13.59,1,19.56,.74,7.34-.33,10.95-3,17.44-4.12,5.71-.95,18.72,4.23,17.77-10.15-.47-7.11-5.25-13.85-9.52-19-5.79-7-18.31-16.2-21.57-24.74-4.62-12.12-3.64-20-3.8-31.93,0-.43,4.85,5.46,5.68,6.16,8.19,6.88,16.13,14.38,24.77,20.69,10.32,7.56,22.91,17.74,33.62,24.74,8.14,5.33,18.73,12.57,29.18,9.52,4.78-1.41,8.66-8,8.14-13s-3.3-6.86-7.28-9.87c.9,.68,4.42-2.27,4.9-3.03,1.36-2.17,1.06-5.39-.5-7.36-1.51-1.89-3.98-2.81-6.39-2.97-5.08-.33-10.01,1.49-15.1,1.09-4.77-.38-8.01-4.99-11.36-8.13-9.06-8.51-17.71-17.55-26.99-25.74-9.16-8.08-18.25-16.24-27.62-24.08-1.78-1.49-3.56-2.96-5.36-4.43-1.56-1.31,1.35-8.69,2.11-9.94,3.72-6.12,10.6-6,17-7.79,5.72-1.61,11.36-3.46,16.92-5.57,3.44-1.31,12.27-5.41,12.38-5.46-.21,.26-6.22,12.92-7.32,19-.83,4.22-.22,8.6,1.72,12.44,1.47,2.83,6.45,5.65,9.85,4.63,2-.61,6.33-5.09,6.32-7.27,0,11.51-1,22.78-.37,34.33-.05,1.89,.41,3.76,1.34,5.41,1.68,2.42,5.28,3,7.94,1.7,2.62-1.43,4.49-3.92,5.15-6.83,.63-2.89,.8-5.85,.52-8.79-.37-7.83-1.35-15.63-2.92-23.31-.21-.59-.14-1.24,.2-1.77,1.06-1.12,2.23,.8,2.76,1.48,1.41,1.8,15.29,14.28,16.66,8.62,1.19-4.94-5.09-18-5.06-18s1.95,2.17,2.23,2.47c1.12,1.2,2.22,2.45,3.41,3.59,2.16,2.06,4.67,3.71,7.41,4.88,1.3,.55,2,.19,2.72-1,.54-.95,.98-1.96,1.32-3,1.9-4.93,1.34-10.46-.17-15.44,.46,1.54,6.52,3,7.86,2,2.5-1.78-.26-5.06-1.16-7.11-3.9-8.87-20.4-16.06-23.4-17.06,7.66,.36,15.22-.19,22.82-.27,2.24,.13,4.47-.22,6.57-1,2-.92,3.74-3,3.52-5.19-.27-1.6-1.26-2.99-2.68-3.77ZM65.6,186.8c.52-.53,2.26,.26,2.83,.53,.98,.47,1.89,1.1,2.69,1.84,1.05,.96,1.91,2.13,2.52,3.41,.51,1.06,.39,2.11,.05,3.31-.05,.16-1.22,.12-1.69,.05-1.33-.19-2.28-.84-3.49-2.08-.95-.97-1.72-2.11-2.28-3.35-.32-.73-1.35-2.98-.63-3.72Zm45.54,45.07c-.06,.06-.14,.1-.23,.1-.61,.06-1.52-.5-2.03-.78-.77-.42-1.49-.93-2.18-1.48-2.98-2.4-5.65-5.64-7.24-9.13-.33-.72-.64-1.48-.77-2.27-.04-.23-.19-.92,.02-1.09,.17-.14,.84,.13,1.03,.18,3.94,1.04,7.32,4.46,9.74,7.59,.78,1.01,1.41,2.21,1.71,3.48,.13,.57,.49,2.86-.06,3.39Zm216.98-74.67c-.48-3.49,0-9.99,3.96-13.8,2.38,3.81,.16,12.05-3.96,13.8Zm16.31-38.07c-1.41-4,4.69-15.46,7.62-15.46-.79,7.73-3.33,11.89-7.62,15.5v-.04Z"/>
    </g>
    <g id="Red_Hair" data-name="Red Hair">
      <path class="cls-5" d="M376.22,151.3c-.91-.66-1.74-1.42-2.47-2.28-1-1.19-2.5-4.3-3.92-5-.23,.33,2.66,5.36,3.64,7.21,1.78,3.36,3,6.44,2.73,10.29-.15,2.54,.06,7-1.37,9.23-.73-.66-8.86-6.71-11.18-8.81-2.22-1.96-4.1-4.29-5.56-6.87-.5-.95-1.07-1.86-1.7-2.73-.05,.15,2.37,9,3.23,12.67,2.06,5.86,2,8.64,3.63,12.95-1.56-.76-4.69-2.17-5.39-2.85-4.92-3.25-9-5.71-12-10.79-2.45-3.17-3.69-11-3.09-17.12,.31-3.13,.52-6.54,1.06-9.63,.61-3.5,.69-3.89,4.33-4.22,16.03-1.45,30.09,5.34,36.8,20.35,.05-.04-4.83-.66-5.65-.89-1.11-.32-2.16-.83-3.09-1.51ZM93.51,243.55c-.06-5.91,.15-13.88-1.18-16.78-.86-1.87-2.54-6.56-2.76-7.35,0,0-14,5.83-14.15,6,0,0-.27,4.44-.47,5.88-.56,3.9-.4,7.5-.79,11.42-.54,5.37-1.5,8.9-.16,14.59,.39,1.49,1.28,2.81,2.53,3.71,.31,.24,3.92,1.61,3.84,1.32-1.82-6.66-.76-13.21,.72-19.77,.28,2.42,.4,4.86,.36,7.3,0,3.4,3.56,6,5.92,8.11,1.36,1.24,2.78,2.41,4.25,3.5,.73,.55,1.48,1.08,2.24,1.59,.32,.22,2,1.29,1.93,1.24-1.84-6.67-2.2-13.9-2.28-20.76Zm21.28-156c1.17-1.76,1.09-2.46,1.73-3.71,7.22-14.66,16.83-28.01,28.43-39.51,4.78-4.7,9.86-9.1,15.2-13.15,1.31-1,11.25-8.79,11.18-8.65,.3,5.53-.22,10.59,.07,16,.6-.75,4.58-11.53,5.08-12.37,.53,.65,7.27,5.53,9.25,7.49,1.36,.89,2.83,1.59,4.38,2.08,.24-.23-4-5.23-4.28-5.76-2.85-5.08-4-7.48-3-7.3,.79,.16,14.43,3,17.62,3.84,6.52,1.68,13.1,3.15,19.25,5.88,12.25,5.44,23,13.68,32.57,23-2.12-11.32-7.63-21.08-12.66-31,11.34,11.95,17.18,26.73,19.34,42.42,2.93,20.35-2.43,41.03-14.88,57.39,1.52-.22,9.3-4.54,12.31-4.46,2.75,.08,5.64,1.42,6.74,3.94,.94,2.18,.39,4.68-.19,7l-4.15,16.77c-.3,.84-.3,1.76,0,2.6,.7,1.08,2.07,1.51,3.26,1,1.84-.68,4-2.74,5.54-4,.89-.72,7.2-6.49,7-6.46-1.8-.48-7-4.28-8.41-3.91,2.29-.48,4.67-.39,6.92,.27,2.47,.57,4.51,2.29,5.5,4.62,.33,.94,1.4,7.92,1.95,8.71,.94,1.34,26.76-8.18,31.72-10.15,7.74-3.07-7.3-9.62-11.74-10s-12.92-1-12.76-1.24c1.07-.28,10.91-1.09,10.7-1.14-.95-.57-1.85-1.22-2.69-1.94-4.55-4.84-8.51-8.71-15.07-10.8-1.54-.49-16.44-2.11-17.06-3.5,5.87,.16,11.72,.66,17.53,1.51-.06,0-10.84-12.09-12.84-15.48-1.23-2.07-4.24-10.37-4.4-10.46,2,1.17,3.28,4.59,4.65,7,1.54,2.74,3.27,5.36,5.17,7.86,1.9,2.48,3.93,4.86,6.09,7.12,1.6,1.69,5.05,4.6,6.31,6-1.68-3.56-3.51-7.09-5-10.72-.69-1.65-1.11-8.18-1.19-8.4,1.14,3.07,2.93,5.91,4.3,8.89,1.47,3.19,3.2,6.25,5.19,9.15,4,5.85,16.44,14.45,16.9,14.44-.11-.39-10.79-14.46-9.44-19.57,3.05,3.63,5.85,7.46,8.38,11.46,2.49,4.13,5,7.76,8.74,10.81,4.81,3.9,9,6.77,14.31,3.14,.86-.59,4.75-8.93,3.59-11-13.63-24.24-16.81-29.31-28.8-44.58s-26.62-29.13-41.4-41.73c-11.85-10.08-24.4-19.4-38.4-26.26-7.33-3.59-15.19-6.51-23.38-6.76-11.7-.37-19.74,5.45-27,14-1.13,1.32-6-1.19-7.56-1.55-2.78-.62-5.6-.99-8.44-1.12-5.65-.22-11.29,.51-16.69,2.16-10.77,3.25-21.25,9-29.1,16.84-3.32,3.33-6.43,6.86-9.31,10.57-2.72,3.77-5.24,7.68-7.54,11.72-13.85,23-23.09,43.77-23.79,70.74-.42,11.06,.42,22.13,2.52,33,1.07,5.36,2.66,10.6,4.73,15.66,1.52,3.62,4.83,13.98,8.87,15.55,.76,.3,10.57-3.59,11.21-5.5,.84-3.3,.82-9.77,1.31-13.13l2.08-15.46c.59-4.38,3.18-20.47,3.7-21,2.2,6.15,.11,16.38-.48,22.89-.74,7.63-2.54,17.71-4.08,25.22,.42,1.06,6.11-2.47,6.77-2.75,2.45-1.07,8.38-3.98,8.25-5.71-.38-10.38-.77-23.17-2.68-33.48s-5-20.42-7.74-30.55c-4.86-17.7-11.34-42.77-.46-59.43,.71,8.93-2.48,18.13-2,27.37,.52,10.24,2.65,20.33,5.18,30.23,2.68,10.5,5.34,21,7.22,31.7,1,5.48,1.73,11.01,2.17,16.57,.36,5.13,1.2,12.46,.84,17.59,0,0,8.09-4.21,9.09-4.65,2.96-1.69,7.4-3.17,7.61-4.86,1.38-8.91-3.09-22.15-4.23-31.08-.88-6.94-5.58-12.32-8.58-18.55-4.9-10-7.8-21.14-11.28-31.75-1.78-5.43-3.9-11.65-2.62-17.42,3.4,5.27,5.47,13.78,6.86,19.83v-.02Z"/>
    </g>
    <path id="White" class="cls-1" d="M182.23,146.6c-2.33-3.85-10.52-16.46-12.13-17.04,2.53,.7,5.04,1.28,7.53,2,2.72,.78,5.39,1.73,8,2.84,5,2.2,9.39,5.48,14.08,8.26,6.58,3.9,14.47,7.43,22.26,5.75-2.63-.43-8.94-1.66-8.94-1.95,3.66-2.36,8.5-2.88,12.43-5.28,4.49-2.74,8.8-5.73,13-8.85,4.66-3.47,11.85-8.08,17.99-7.65,2.97,.21-19.67,17.13-24.01,33.07-1.31,4.81-1.72,9.42-5.04,13.42-3.03,3.66-7.2,7.21-11.88,7.68-6.96,.7-20.6,1.65-21.71-3.11-2.25-9.63-3.96-14.9-8.97-24.26-.86-1.6-1.62-3.28-2.6-4.88Zm115.99,127.13c-.59-1.59-1.54-3.02-2.77-4.18-1.51-1.72-2.93-3.37-4.44-4.93-3.66-3.78-7.41-7.3-11.17-11-.56-.44-1.8-2-4-4.13-.71-.68-3.6-3.49-4-4-.26-.31-.84-1.63-1.71-3.37-2.1-4.25-4.08-10.87-5.51-15.15-.48-2.57-.69-5.19-.63-7.81,0-2.38,.25-4.89,.28-7,0-2.37,.12-4.56,.16-7,0-1.61,.07-3.14,.07-4.71,0-1.87,0-2.81,.08-4.44,.1-3.32,.64-7.89,.48-12-.08-2-.15-3.94-.16-5.47,.03-1.3-.05-2.6-.24-3.88-.83-2.67-2.03-5.22-3.56-7.56-1.53-2.22-3.84-3.78-6.47-4.38l-.75-.2c-2.07-.44-4.21-.52-6.31-.23-3,.43-5.15,.43-7.53,2.52-.89,.78-1.89,1.51-2.81,2.35-1.33,1.22-2.87,2-4.09,3.37-1.38,1.55-3.39,3.58-5.11,5.16-2.65,2.21-5.71,3.89-9,4.93-2.95,.8-5.96,1.39-9,1.77-2.82,.33-5.66,.42-8.49,.27-2.98-.22-5.94-.68-8.84-1.38-5.75-1.33-10.75-5.07-15.18-8.81-2.78-2.33-5-5.45-7.65-7.49-1.52-1.13-3.2-2-5-2.58-1.48-.48-3.01-.79-4.56-.91-1.53-.02-3.06,.12-4.56,.4-3.73,.51-8,2.06-10,4.32-1.2,1.26-2.14,2.74-2.78,4.36-1.27,3.73-1.5,7.22-1.5,11.9,0,3.59,.21,7.23,.31,11,.16,5.87,.32,10.51,.92,16.41,.12,1.21,.1,3.17,.08,4.29,0,2.61-.41,5.71-.48,8.16,.07,2.5-.2,4.99-.79,7.42-.91,2.88-2,5.7-3.25,8.44-1.48,3.32-4,6.43-6.82,10.19-1.38,1.46-2.65,2.93-4,4.32-3.39,3.59-6.65,6.82-9.75,10-1.51,1.49-3.15,2.89-4.68,4.25-2.16,1.91-4.5,4.31-5.27,7.18-1,3.66,1.57,6.08,4.48,7.84,.88,.57,1.7,.91,2.53,1.35,4.29,2.28,7.33,2,12.53,2.26,1.59,.2,4.82,0,7.14,.12,1.22,.04,2.43,.21,3.61,.51,1.18,.13,2.35,.38,3.48,.73,3.22,.74,6.55,2.31,9.72,.07,.83-.95,2.46-1,4.08-1.19,2.23-.29,4.49-.15,6.66,.43,.88,.2,1.74,.45,2.58,.76,1.79,.62,3.61,1.1,5.47,1.46,1.99,.63,4.13,.69,6.15,.16,1.12-.3,2.26-.52,3.41-.67,2.71-.51,5.5-.49,8.2,.08,1,.21,2.26,.39,3.41,.71,.88,.24,1.81,.37,2.82,.6,1.32,.3,2.65,.5,4,.59,2.18-.03,4.36-.32,6.47-.87,1.44-.43,2.91-.76,4.4-1,1.34-.17,2.75-.32,4.12-.36,4.28-.12,9.48,.36,14.23,.16,.73-.05,1.45-.17,2.15-.36,.7-.12,1.7-.23,2.41-.28,5.16-.39,8,1.41,12.1,1.31,2.17-.13,4.31-.53,6.38-1.19,1.29-.44,2,.12,4.24-.47,1.15-1.07,3.37-.36,6.11,0,5.45,1.12,7.15,1.76,11.26,1.19,1.59-.21,3.16-.6,4.66-1.17,3.53-1.39,4.41-1.29,7.27-2,1.31-.39,2.68-.59,4.05-.59,2.21,.11,4.41,.11,6.62,0,1.51-.07,2.94-.7,4-1.78,2.24-3.01,1.47-5.87-.26-8.8Zm-160.89-114.24c.16,1.6,.29,3.21,.38,4.82,0,.36,.56,2.6,.27,2.8,7.27-5.12,13.43-10.76,23.12-9.03,9.98,1.78,17.86,10.39,25.08,16.87,.88,.79,4.44,1.53,4.44-1.11-.17-1.21-.92-3.53-1.41-4.65-.53-1.67-1.11-3.33-1.74-5-1.35-3.51-2.89-6.94-4.62-10.28-3.48-6.68-7.68-12.96-12.52-18.72-1.21-1.67-2.59-3.2-4.13-4.58-1.18,1.49-2.25,3.06-3.19,4.71-1.11,1.58-2.27,3.13-3.5,4.62-2.41,3-5.22,5.64-8.36,7.86-1.59,1.09-3.41,2.08-5.33,1.92-2.19-.18-4-1.79-5.41-3.44-.89-1.11-1.83-2.18-2.83-3.19-.39-.37-1-1.1-1.62-1.16-1.28-.14-.75,1.18-.63,2.08,.7,5.15,1.48,10.31,2,15.48Zm96.53,5.42c3.65,.05,7.94-4.49,11.91-5.3,3.96-.8,8.21-.58,11.85,1.17,2.35,1.13,4.41,2.95,5.74,5.2,.82,1.4,.95,4.3,2.83,4.39,1.77,.08,3.47-3.95,4.09-5.12,2.48-4.69,5.36-10.58,6.11-15.9,.16-1.1,.25-2.31-.35-3.25-2.34-3.65-7.97,6.07-13.46,7.86-1.24,.4-2.47,.93-3.77,.84s-2.61-.75-3.21-1.9c-.64-1.21-.41-2.68-.16-4.03,.8-4.35,1.61-8.7,2.41-13.05,.16-.84,1.06-8.18,.49-7.75-5.79,4.35-12.24,11.46-16.48,17.36-3.14,4.36-9.79,17.05-8,19.48Z"/>
    <g id="Red">
      <path class="cls-4" d="M346.33,185.29c.43,6.2,1.19,14-1.27,19.87-.46,1.17-1.25,2.18-2.27,2.9-1.05,.72-2.38,.87-3.56,.41-3.14-1.37-2.35-8.87-2.53-11.6-.33-4.95-.58-9.92-.56-14.89,0-6.65-.19-13.89,2.53-20.12,.63-1.45,1.28-2.89,2.29-5.09,2.05,9.48,4.66,18.78,5.37,28.52Z"/>
      <path class="cls-4" d="M389.53,122.15c.94,.63,1.53,1.66,1.6,2.79,.22,3.63-3.22,4.12-5.91,4.11-7.25,0-14.51,0-21.75,.49-3.53,.21-7.05,.66-10.52,1.33-.9,.18-4,1.1-4.71,.41-.16-.16,3.48-4.46,3.89-5,3.11-4.18,8.7-4,13.35-4.3l13.37-1c3.45-.29,7.59-1,10.61,1.17h.07Z"/>
      <g>
        <path class="cls-4" d="M257.18,392.39c-1.1-4.34-4.05-4.79-8.05-5-2.84-.12-5.69-.04-8.52,.24-6.85,.63-11.13,.84-16.72,1.05-4.98,.19-8.81,.61-13.29,3.07-2.53,1.34-3.04,3.72-2.53,6.34,1.05,5.42,2.27,9.8,5.54,14.28,2.85,3.87,6.68,6.91,11.09,8.81,2.57,1.09,5.31,1.71,8.1,1.84,3.6,.14,7.21-.25,10.7-1.16,4.98-1.37,9.3-4.5,12.15-8.81,4.18-6.42,3.32-13.66,1.53-20.66Zm-5.5,8.55c-.93,3.33-5.3,4.29-7.93,5.08-3.41,.94-6.93,1.41-10.46,1.42-3.74,.08-6.61-.86-10-2.22-2.3-.93-6.01-1.63-6.94-4.23-1.25-3.48,3.79-4.23,6.21-4.48,5.3-.56,10.63-.72,15.95-.49,3.94,0,7.84,.82,11.44,2.41,.71,.28,2,1.59,1.73,2.51Z"/>
        <path class="cls-4" d="M232.48,397.65c-2.68,.04-5.35,.27-8,.68-1.76,.22-3.51,.56-5.23,1-.31,.09-1.36,.27-1.47,.62,0,.03,0,.07,.02,.1-.01,.19,.36,.4,.5,.5,1,.7,2.07,1.3,3.19,1.78,4.66,2.03,9.72,2.94,14.79,2.68,2.53-.12,5.04-.54,7.47-1.25,1.15-.33,2.2-.86,3.33-1.27,.68-.26,3.48-1.64,3-2.1-1.81-1.74-11.88-2.83-17.6-2.74Z"/>
      </g>
      <path class="cls-4" d="M63.68,229.07c1.69-1.04,3.48-1.57,5.36-2.24-.63,2.04-1.37,4.04-2.22,6-2.02,4.31-4.36,8.47-7,12.44-3,4.44-5.66,8.76-8.57,13.32-1.84,2.88-3.57,6.09-5.15,9.12s-4,8.08-5.66,11.76c.08-.16-5.28-2.43-6.13-7.51-.08-.39,2.39-4.09,3.15-5.28,2.46-3.88,4.61-7.87,7.21-11.66,2.8-4.07,5.26-7.81,8.25-11.74,2.25-2.95,3.49-6.53,5.75-9.45,1.27-1.65,2.72-3.16,4.43-4.36,.2-.14,.39-.27,.59-.39Z"/>
      <path class="cls-4" d="M73.33,225.69s-8.25,73.43-8.57,73.11c0,0-7.77-2.33-9.55-5.45-.67-1.18,4.27-33.95,5.59-39.43,1.39-5.77,8.84-15.76,10.31-27.75l2.22-.48Z"/>
      <path class="cls-4" d="M77.66,194.62c-.17,.08-5.11-6.23-5.67-6.7-1.61-1.36-3.3-2.51-5.4-2.45-.86,.02-1.8,.27-2.3,.96-.5,.69-.45,1.62-.29,2.45,.32,1.74,1.22,3.27,2.28,4.66,.54,.71,1.12,1.39,1.69,2.07,.14,.16,1.61,2.08,1.57,2.1,0,0-7.1,2.92-7.22,2.85s-4.04-3.79-4.92-4.76c-2.17-2.4-4.4-4.15-5.63-7.22-1.39-3.13-.34-7.94,2.06-10.39s6.88-3.41,10.23-2.78c4.31,.83,9.06,4.46,12.46,7.24,.91,.74,8.02,8.43,7.43,8.9-.15,.17-6.29,3.04-6.29,3.05Z"/>
      <path class="cls-4" d="M108.76,232.63c1.58,.88,3.62,1.48,4.67-.42,.85-1.53-.29-4.08-.93-5.58-1-2.35-2.51-4.49-4.39-6.22-2.02-1.86-4.56-2.88-6.68-4.58l7.35-3.15s.86,1.14,1.53,1.81c2.56,2.57,4.97,5.3,7.2,8.16,2.19,2.61,3.43,5.88,3.52,9.29,.02,3.46-1.92,6.63-5,8.2-2.17,.87-4.6,.9-6.79,.08-2.17-.83-4.16-2.06-5.87-3.64-2.94-2.54-5.44-5.54-7.41-8.88-1.19-2-2.14-4.16-3.18-6.24-.39-.86-.73-1.75-1-2.66,0-.11,3.6-1.32,3.6-1.32,.09-.03,1.88,3.34,2.1,3.69,1.01,1.56,2.13,3.06,3.35,4.46,.95,1.1,4.69,5.19,7.94,7Z"/>
      <path class="cls-4" d="M334.3,125.16c-.16-.32,1.67-10.35,1.98-11.38,1.88-6.24,4.56-11.59,8.44-16.86,1.31-1.78,2.96-3.28,4.86-4.42,5.07-2.77,12.31-1.22,12.51,5.35,.07,5.51-1.45,10.92-4.36,15.6-2.68,4.58-6.31,8.3-9.42,12.52-.54,.73-4.17,5.57-4.27,5.56-.22-.03,.25-9.07,.61-9.48,2.14-2.46,4.88-4.79,6.58-8.28,1.49-3.06,2.91-8.47,2.75-11.89-.12-2.42-1.53-3.57-3.64-1.84-2.34,2.06-4.1,4.7-5.11,7.65-1.45,4.37-2.8,9.07-3.16,13.66-.12,1.28-.48,5.23-.48,5.23,0,0-7.21-1.26-7.3-1.43Z"/>
      <path class="cls-4" d="M327.44,146.07c-1.35,3.25-4.72,11.04-.08,13.08,8.73,3.84,6.73-16.26,7.94-16.29,1.11-.03,1.38-.04,2.43,.31s2.02,1.15,2.25,2.23c.16,.73-.03,1.48-.22,2.2-1.3,4.92-6.78,30.88-16.67,25.12-2.04-1.19-3.51-3.17-4.05-5.47-.99-3.75-.94-7.71,.17-11.43,1.42-4.81,3.33-9.47,5.69-13.9,.94-1.77,6.59-1.39,6.17-1.71,0,0-3.17,4.74-3.64,5.85Z"/>
      <path class="cls-4" d="M332.03,138.53c.05,.05,1.64-9.83,1.96-10.47,.04-.08,7.56,1.11,7.45,1.06,.07,.17-1.66,11.17-1.59,11.42,0,0-7.59-1.85-7.82-2.01Z"/>
      <path class="cls-4" d="M163.23,94.15l1.78,.68c1.34,.51,2.67,1,4,1.48,2.78,.86,5.61,1.51,8.49,1.94,.69,.11,1.39,.21,2.1,.29,6.32,.8,12.73,.64,19-.47,5.82-1.09,11.75-2.26,17-5.21,1.18-.66,2.41-1.17,3.63-1.75-1.25,1.78-2.69,3.43-4.28,4.91-1.99,1.67-4.23,3.02-6.64,4-3.42,1.31-6.99,2.2-10.62,2.65-5.36,.78-10.8,.88-16.19,.3-4.17-.44-8.23-1.61-12-3.45-1.77-.89-3.4-2.03-4.85-3.39-.38-.35-2.19-2.27-2.19-2.3,.27,.07,.53,.18,.77,.32Z"/>
      <path class="cls-4" d="M145.89,97.49c0,3.97-3.22,7.19-7.19,7.19-3.97,0-7.19-3.22-7.19-7.19s3.22-7.19,7.19-7.19,7.19,3.22,7.19,7.19h0Z"/>
      <path class="cls-4" d="M249.77,89.75c0,3.97-3.22,7.19-7.19,7.19-3.97,0-7.19-3.22-7.19-7.19s3.22-7.19,7.19-7.19,7.19,3.22,7.19,7.19h0Z"/>
      <g>
        <path class="cls-4" d="M183.42,394.14c-9.72-10.56-25.79-18.56-39.57-20.49-1.07-.14-6.92,6.14-11.29,14.51-2.42,4.63-3.95,9.96-2.89,15.07,2.55,12.56,17.5,13.56,27.55,10.7,11.32-3.22,23-11.86,26.17-19.76l-.54-.15,.57,.12Zm-8.35,5.77c-1.32,2-6.05,1.74-8.19,1.79v.05c-8.88,.23-17.43-3.42-23.4-10-1.43-1.48-2.63-3.16-3.56-5-1.53-3.29,.7-2.94,3.48-2.76,4.79,.33,9.5,1.34,14,3,3.34,1.21,6.54,2.77,9.55,4.64,1.93,1.19,9.79,5.51,8.12,8.28Z"/>
        <path class="cls-4" d="M156.45,390.28c-2.52-.89-5.09-1.61-7.71-2.14-1.73-.4-3.49-.69-5.26-.85-.33-.02-1.38-.22-1.6,.07h-.03c-.08,.18,.2,.51,.29,.66,.69,1.01,1.49,1.94,2.38,2.78,5.53,5.29,12.73,8.51,20.36,9.09,1.19,.06,2.37,.06,3.56,0,.75,.01,3.86-.32,3.56-.91-1.11-2.23-10.15-6.8-15.55-8.7Z"/>
      </g>
    </g>
    <g id="Tan">
      <path class="cls-2" d="M190.4,296.02c2.69,1.56,2.08,6.17,1.55,8.8-1,4.79-1.71,9.64-2.37,14.49-2.9,22.49-4.44,45.13-4.63,67.81,0-1.41-5.82-4.84-6.9-5.61-6.7-4.75-14.05-8.53-21.81-11.22-1-.34-10.38-2.93-10.41-2.83,2.44-10.87,3-22,4.75-33,1.94-12.53,3.71-28,8.79-39.73,1.58-3.65,27.9-.56,31.03,1.29Zm57.69,24.79c-.51-7.27-1.49-14.65-1.63-21.91,.04-1.33-.39-2.63-1.23-3.67-2.34-2.79-7.95-2.59-11.06-2.38-4.14,.27-9.16-.12-13.32,0s-4.9,2.12-5.29,7.19c-.35,4.6-1.27,8.92-1.62,13.52-.71,9.19-1.24,18.41-2.12,27.59l-1.73,22.62c-.54,7-2.08,14.82-1.57,21.82,1.71,.22,4.21-1.16,6-1.64,1.95-.54,3.93-.97,5.93-1.3,4.09-.69,8.23-1.03,12.38-1,4.16,.01,8.31,.33,12.42,.93,3.78,.44,7.53,1.08,11.24,1.91,.18-3.59-1.25-7.9-1.85-11.48-.62-3.77-1.22-7.53-1.81-11.3-1.19-7.72-2.28-15.46-3.27-23.21-.8-5.95-1.06-11.84-1.47-17.72v.03Zm-115.14-149.4c-1.65,.83-3.26,1.45-4.86,2.33-5.59,3.24-10.99,6.29-16.7,9.3-14.25,7.49-29.25,13.41-44.19,19.45-7.52,3.07-16.05,6.64-23.68,9.3-4.94,1.72-9.25,.95-14.02-.76-3.19-1.14-6.62-2.92-9.82-4.05-1.52-.54-3.94-1.7-5.55-1.59-3.23,.23-5.83,4.37-2.54,6.82,1.06,1,5.66,2.7,4.85,4.63-.64,1.57-5.9,3.15-7.39,4.42-2.2,1.77-3.63,4.32-4,7.12-.31,3.64,1.89,7.2,5,9.15,3.19,1.84,6.9,2.58,10.55,2.1,9.43-.9,19-5.37,27.76-8.72,9.25-3.53,18.43-7.26,27.73-10.67,16.39-6,32.36-12.7,48.65-19,5.08-2,11.79-2.35,11.19-8-1.52-13.65,2.65-24.67-2.96-21.84Zm137.38,26.89c-.39,5.41,56.46,46.52,62.17,50.75,6.22,4.61,15,11,22.71,12.58,3.82,.77,8.21-.14,10.67-3.16,5-6.12-2.37-13.24-8-15.13-1.78-.59,5.05-3.73,5.69-4,1.28-.56,2.57-1.53,2.73-2.92,.19-1.61-1.31-3-2.89-3.33-1.61-.18-3.25,.02-4.77,.59-4.15,1.2-13.56,2.81-17.27,.15-4.44-3.17-65-62.16-70.41-62.16-1.9,0-.31,22.19-.63,26.63Zm-14.46-116.75c-.51,9.42-2.74,18.67-6.6,27.28-4.59,9.95-11.53,18.64-20.23,25.3-6.68,5.13-15.82,12.68-23.77,7.39-5.27-3.63-10.85-6.81-16.66-9.5-6.1-2.71-12.84-4.67-19.57-4.66-6.47,0-8.93,4.37-12.28,9.46-2.32,3.53-8.28,9.49-12.31,7.81-4.86-2-7.92-10.88-11-14.89-5.17-6.72-10.19-13.7-13-21.8-6.85-20,7.59-40,20.39-54.28,4.44-4.97,9.31-9.54,14.54-13.67,3.54-2.79,9.83-7.87,13.11-10.15,0,2.12-.78,14.93,1.4,16.07,2.39-2.96,4.27-6.31,5.55-9.89,.42-1.13,1.59-5.55,2-5.25,4.49,2.93,17.21,10.29,17.76,8.88s-3.82-7.86-5.5-9.73c-1.4-1.55-3.93-3-5-4.8,22.78,5.68,43.6,14.54,61.32,30.4,.45,.4,.87,.79,1.28,1.19,7.22,7.06,9.13,14.43,8.57,24.84Zm-108.7,20.8c1.96-3.43,1.72-7.69-.62-10.88-3.23-4.33-9.37-5.22-13.7-1.99-4.33,3.23-5.22,9.37-1.99,13.7,1.56,2.09,3.89,3.47,6.47,3.84h0c3.91,.52,7.77-1.3,9.84-4.66h0Zm14.93-29.66c.1-2.59-1.01-5.09-3-6.75-3.54-3.09-8.93-2.73-12.02,.82-2.97,3.4-2.77,8.52,.45,11.68,2.72,2.73,6.9,3.36,10.31,1.57,2.62-1.51,4.24-4.29,4.26-7.31h0Zm60.77,15.84c-.22-.41-.55-.4-1-.23-12.23,4.7-22.41,7.43-37.65,7.26-7.59-.08-24.13-3.45-24.09-3.88-1.25,12.88,24.21,15.93,32.8,15.24s20.27-4.26,26.33-11.5c1.72-1.99,2.96-4.35,3.61-6.89Zm10.08-22.63c-1.21-3.4-4.39-5.7-8-5.78-8.18,0-11.55,10.92-4.77,15.48,3.88,2.61,9.15,1.57,11.75-2.31,1.45-2.17,1.83-4.88,1.02-7.36v-.03Zm10.28,33.63c2.83,0,5.49-1.33,7.18-3.6,4.45-6.55,.88-15.43-7.32-16.1-3.03-.16-5.95,1.11-7.9,3.43-3.61,4-3.29,10.16,.71,13.77,1.9,1.72,4.41,2.62,6.97,2.5h.36Z"/>
    </g>
  </g>
  <g id="Dress">
    <path class="cls-4" d="M299.98,276.63c-.26-.94-.62-1.86-1.07-2.73-.46-.78-.88-1.59-1.25-2.42l-6.82,6.86-7.25-7.18,7.37-7.3-6.09-6-7.37,7.3-6.63-6.57,7.37-7.3-6.09-6-7.37,7.3-7-7,7.37-7.3,7,7c-.14-.31-.46-1-.64-1.37-.4-.75-.78-1.51-1.15-2.27-.73-1.53-1.39-3.08-2-4.67-.71-1.88-3.25-10.05-3.55-10.45h0l-7.24-7.17,7-7.6,.24-11.64-6.84-6.77s7.37-7.3,7.36-7.31c.09-.3-.15-10-.32-11.73l-6.93-6.87,1.21-1.2c.31-.29,.6-.6,.87-.92-.23-.25-.48-.48-.74-.7-3-2.43-7.23-3-10.92-2.71-1.22,.1-2.42,.27-3.62,.51-.9,.18-1.78,.44-2.63,.77,.38,.36,4,3.93,4,3.92l-7.37,7.3-5-4.52c-1.79,1.73-2.1,2.29-4,4.07l-1.56,1.52,4.73,4.64-7.57,7.5-5.75-5.78c-1-1-1-1.32-2.48-1s-2.75,.6-4.13,.83c-1.83,.3-3.67,.54-5.51,.7-.89,.01-1.78,.07-2.67,.18-.73,.14-4.34,3.62-5.76,4.94,0,0-7.2-6.82-7.22-6.82-4-1-7.76-3.58-11-6.06-2.63-1.99-5.08-4.22-7.31-6.65-2.03-2.46-4.64-4.39-7.59-5.61l-1.61-.5-2.11-.43,5.06,6-6.76,6.69-7.48-7.38,5.56-5.5c.1-.07-2.57,.4-3.37,.53-3.45,.55-6.67,1.67-9.16,4.22-3.26,3.33-3.66,7.3-4.08,11.69l5.35-5.21,7.39,7.35-7.66,7.45h0l-5.28-5.35,.76,21.92s4.87-4.87,4.88-4.85l6.84,6.77-7.58,7.5-3.61-4s.15,4.72-.13,9.39c-.32,5.32-1.06,10.7-1.06,10.7l4.75-4.92,7.42,7.53-7.16,7.1s-6.1-6.52-6.12-6.38-1.21,3.27-1.4,3.65c-.4,.79-1.09,2.25-1.91,3.65l3.66,4.78-7.37,7.3c-1-.96-2.07-1.86-3.18-2.69,.15,.13-4.84,5.19-5.37,5.77l2.79,2.6-6.8,6.8-2.83-2.42c-.53,.53-5.37,5-5.93,5.39l3,2.67h0l-7.23,7.1c1,2.08,3.64,4.16,6.56,5.43l6.77-6.49s5.33,8.86,5.62,8.91c1.59,.32,7.12,.06,8.25,.22,2.78,.35,5.53,.9,8.23,1.65l-3.1-3.38,6.81-6.75,6.94,6.87-2.53,2.77c.75-.82,3.17-1,4.2-1.08,1.79-.15,3.59-.07,5.35,.25,3,.5,5.77,1.89,8.71,2.34-.36-.37-3.83-4-3.87-3.95l7.36-7.3,6.84,6.77-3.79,4.76c.19-.24,1.75-.37,2-.43,1.09-.26,2.2-.43,3.31-.53,2.26-.18,4.53-.04,6.75,.4l1.18,.23c2.68,.56,5.32,1.25,8.05,1.57l-5.65-5.68,7.16-7.09,7.24,7.17-6.88,5.63c3.25-.15,6.29-1.33,9.49-1.8,4.63-.68,9.2-.24,13.83-.2l-3.8-4.26,6.8-6.54,6.84,6.22-4.21,4.44c2.02-.48,4.09-.67,6.16-.55,2.13,.18,4.2,.74,6.3,1.11,3.52,.62,6.49,0,9.83-1.06l-4.66-4.44,6.21-5.92,6.63,6.56-3.94,3.24c.83-.69,3.44-.08,4.39,0,2.21,.26,4.3,.85,6.46,1.27,3.02,.6,6.14,.45,9.09-.43-1.26-1.42-2.48-2.88-3.71-4.32l6.27-6.15s6,6.07,5.95,6c-.65,.75-1.26,1.54-1.82,2.37,.54-.05,1.07-.15,1.59-.28,.93-.29,1.88-.51,2.85-.65,2.17-.33,4.19,.06,6.34,.06s4.86-.18,6.31-2c.93-1.29,1.34-2.89,1.15-4.47-.04-.38-.11-.76-.21-1.13Zm-41-44.41l-7.37,7.3-7.24-7.17,7.37-7.3,7.24,7.17Zm-85.76-19.12l-7-7,7.57-7.5,7,7-7.57,7.5Zm13.67-1.46l7.14,7.07-7.57,7.5-7.14-7.07,7.57-7.5Zm-13.34,13.21l7.15,7.07-7.58,7.5-7.14-7.07,7.57-7.5Zm13.24,13.1l6.94,6.87-7.58,7.5-6.93-6.86,7.57-7.51Zm5.76-5.7l7.58-7.5,6.94,6.86-7.58,7.51-6.94-6.87Zm13.34-13.21l6.76-6.69,6.93,6.87-6.75,6.69-6.94-6.87Zm7.27,18.61l6.83,6.77-7.57,7.5-6.84-6.77,7.58-7.5Zm5.76-5.71l6.78-6.68,6.83,6.77-6.75,6.7-6.86-6.79Zm12.52-12.39l7.37-7.3,6.83,6.76-7.37,7.3-6.83-6.76Zm7.17,18.51l7.24,7.17-6.75,6.69-7.25-7.19,6.76-6.67Zm20.37-32.25l-7.57,7.5-6.84-6.77,7.58-7.5,6.83,6.77Zm-6.73-32.68l6.94,6.87-7.37,7.3-6.94-6.87,7.37-7.3Zm-13.13,13l6.93,6.87-7.57,7.5-6.94-6.86,7.58-7.51Zm-13.34,13.21l6.94,6.87-7.37,7.3-6.94-6.87,7.37-7.3Zm-13.21-13.08l7.15,7.07-7.4,7.3-7.15-7.08,7.4-7.29Zm-13.13,13l7.14,7.07-6.75,6.69-7.13-7.09,6.74-6.67Zm-13.13-13l7,7-6.76,6.68-7-7,6.76-6.68Zm-12.93-12.81l6.83,6.77-6.75,6.69-6.83-6.77,6.75-6.69Zm-20.06,19.9l7.57-7.5,6.84,6.77-7.58,7.5-6.83-6.77Zm-.41,26l7.57-7.5,7,7-7.57,7.5-7-7Zm7.37,18.72l7.14,7.07-7.17,7.12-7.14-7.07,7.17-7.12Zm-25.77,39.66l-7.14-7.07,6.81-6.75,7.15,7.08-6.82,6.74Zm12.58-12.43l-7.14-7.07,7.37-7.3,7.14,7.07-7.37,7.3Zm13,12.9l-6.91-6.9,7.37-7.29,6.94,6.86-7.4,7.33Zm13.13-13l-6.9-6.9,7.16-7.1,6.94,6.87-7.2,7.13Zm12.93,12.8l-6.83-6.81,7.16-7.09,6.84,6.76-7.17,7.14Zm12.93-12.8l-6.83-6.77,7.57-7.5,6.83,6.77-7.57,7.5Zm13.34,13.21l-7.25-7.18,7.58-7.5,7.24,7.17-7.57,7.51Zm13.34-13.21l-7.25-7.18,7.58-7.5,7.24,7.18-7.57,7.5Zm13.13,13l-7-7,7.58-7.5,7,7-7.58,7.5Zm13.34-13.21l-7-7,6.75-6.69,7,7-6.75,6.69Zm12.72,12.6l-6.63-6.6,6.76-6.69,6.63,6.56-6.76,6.73Z"/>
  </g>
</svg>