<?xml version="1.0" encoding="UTF-8"?>
<svg xmlns="http://www.w3.org/2000/svg" viewBox="0 0 411.66 570.42">
  <defs>
    <style>
      .cls-1 {
        fill: #fff;
      }

      .cls-2 {
        fill: #d9859e;
      }

      .cls-3 {
        fill: #231f20;
      }
    </style>
  </defs>
  <g id="Black">
    <path class="cls-3" d="M366.61,363.55c-.13,2.69-.32,5.26-.36,7.83-.06,3.24,.36,6.49,0,9.71-1.03,9.17-3.57,16.04-7.06,24.08-2.22,5.12-5.71,10.15-8.14,14.91-1.21,2.38-6.58,11.99-15.12,24.52-4.91,7.21,2.18,18.05,5.32,25.24,6.82,15.65,16.6,29.79,22.78,45.73,3.39,8.75,8.9,21.84,2.81,30.53-4.16,5.93-13.17,12.26-19.68,15.43-13.72,6.67-29.11,7.92-44.13,8.28-13.81,.34-28.96,2.86-40.9-5.6-4.73-3.35-12.9-9.42-13.25-15.66-.3-5.5-.95-10.98-1.08-16.48-.22-9.81-.15-19.63-.23-29.44-.03-4.58-.17-9.15-.17-13.73,0-4.81,.12-9.62,.17-14.44,.01-1.09,.56-2.43-1.6-2.16-15.61,1.91-30.97-.43-46.3-2.96-2.79-.46-4.26-.12-5.04,2.9-2.3,8.87-6.39,16.99-10.54,25.14-4.06,7.98-9.48,15.14-15.42,21.81-4.35,4.89-8.6,12.39-14.91,15.03-15.77,6.59-32.8,4.01-48.43-1.59-9.13-3.27-18.08-7.03-26.75-11.37-6.57-3.29-14.91-5.78-15.98-13.92-1.59-11.97,7.54-25.13,13.28-34.92,8.96-15.29,16.88-25.6,31.34-38.85,3.83-3.51,6.88-4.83,3.3-8.74-27.39-29.81-33.24-66.63-23.29-102.04,3.21-11.44,9.5-21.26,16.89-30.42,2.87-3.55,5.83-7.04,8.74-10.56-20.97-.13-41.69-.02-62.25-3.22-6.98-1.09-14.08-1.71-20.91-3.43-6.66-1.68-13.71-3.02-19.31-7.26-6.01-4.55-8.43-12.29-9.76-19.43-1.32-7.11-.46-14.42,1.64-21.3,1.23-4.01,2.81-7.98,4.79-11.67,2.78-5.17,6.72-9.07,13.11-9.62,4.17-.36,8.31-1.11,12.08-1.63-1.43-5.39-3.13-11.08-4.38-16.87-.45-2.09-.12-4.49,.41-6.61,.93-3.71,4.47-4.81,7.48-5.63,4.71-1.29,9.63-1.77,14.47-2.58,5.32-.89,10.61-2.06,15.96-2.55,4.66-.43,9.4-.19,14.1-.06,1.64,.04,2.79-.15,4.14-1.38,2.71-2.47,5.85-4.47,8.74-6.75,.46-.36,.57-1.18,.8-1.79,1.11-2.92,2.17-5.86,3.32-8.77,1.58-3.98-8.68-1.62-10.9-1.92-3.47-.48-6.84-1.82-9.68-3.88-12.89-9.4-6.42-31.15-1.7-43.15,2.67-6.77,6.59-13.13,10.54-19.3,4.66-7.26,14.62-21.58,19.88-28.42,13.73-17.87,24.93-28.04,42.82-42.18,2.32-1.84,5.98-3.96,9.2-6.03,12.49-8.01,25.97-8.34,39.32-1.65,2.2,1.1,3.91,3.15,5.9,4.69,.59,.45,1.47,1.06,2.04,.91,8.08-2.03,15.85-.6,23.41,2.17,11.5,4.2,22.96,8.53,34.36,13.01,8.61,3.38,16.54,8.13,24.1,13.39,4.47,3.11,8.47,6.89,12.66,10.39,3.37,2.82,6.88,5.51,10,8.59,1.99,1.97,3.42,4.52,5.05,6.85,.38,.55,1.02,1.76,1.65,4.29,.07,.28,.14,.57,.23,.84-.09-.45-.16-.9-.25-1.35,.51,2.28,.74,4.82,1.54,7,2.14,5.85,4.61,.65,14.02,3.15,7.18,1.91,11.24,5.28,13.77,11.94,5.41,14.28,7.58,29.48,9.81,44.51s4.43,28.88,6.77,43.31c2.47,15.26,3,30.63,3.73,46.08,.61,13.09-.66,17.68-1.93,27.05-.19,1.38,.75,1.45,2.54,2.22,8.55,3.67,15.27,10.02,21.86,16.4s13.35,13.62,18.08,21.96c9.25,16.3,6.26,35.24-3.86,50.33-6.15,9.17-14.55,15.06-24.35,19.15-3.51,1.47-7.67,1.37-11.29,1.94Z"/>
  </g>
  <g id="Pink">
    <path class="cls-2" d="M355.4,199.09c-5.42,5.48-8.26,12.98-7.59,20.85,.68,7.98,5.24,16.11,12.05,20.33,.68,.29,1-2.57,.79-9.55-.41-13.63-.11-14.91-.8-28.79-.11-2.12,.06-5.15-1.25-5.61-1.15,.85-2.21,1.78-3.19,2.77ZM84.31,483.61c8.32-.31,14.03-4.82,15.25-13.64,.97-7.05-3.86-19.98-7.2-14.56-16.48,26.79-21.6,28.7-8.05,28.19ZM345.85,137.76c-6.27-3.58-8.49-10.39-9.19-14.33-.91-5.16-.61-10.5,1.57-15.17,.99-2.13,2.51-6.21,5.49-6.57,.45,4.65,3.25,19.56,5.43,30.43,1.97,9.79,1.42,8.34-3.3,5.64Zm-5.12,282.19c.89,.81,1.77,1.54,2.76,1.95,.45,.19,13.34-24.38,14.39-26.69-3.37-2.29-7.21-3.89-11.29-2.57-6.67,2.16-10.19,8.74-10.79,14.71,0,.05,0,.11-.01,.16-.09,3.73,.75,8.65,4.95,12.44ZM87.91,87.1c-1.13,2.74-16.3,31.94-12.82,30.87,5.67-1.74,11.49-3.75,14.64-9.14s3.29-11.94,.73-17.44c-.42-.91-1.86-5.98-2.56-4.28Zm37.63-30.6c.26,.86,.63,1.54,1.36,2.02,22.31-23.61,22.41-21.3,19.61-22.48-4.96-2.09-14.43,1.09-17.42,4.16-3.9,4.01-5.51,9.84-3.55,16.3Zm233.59,465.69c-13.08,.96-17.73-7.08-18.52-13.7-.59-4.94,5.74-13.75,6.71-11.57,1.69,3.81,3.21,5.81,6.34,13.11,2.54,5.92,4.86,9.68,5.47,12.15Zm-95.69,9.38c-.56-6.39-5.91-11.91-11.83-15.06-.09,.4,0,.85,.03,1.27,.24,2.65,.82,22.75,1.31,29.66,.02,.27,0,.75,.19,.67,6.73-3.13,10.84-10.26,10.29-16.54ZM226.92,47.76c0,7.62-6.46,13.8-14.43,13.8s-14.43-6.18-14.43-13.8,6.46-13.8,14.43-13.8,14.43,6.18,14.43,13.8Zm61.72,64.14c0,10.23-8.71,18.52-19.44,18.52s-19.44-8.29-19.44-18.52,8.71-18.52,19.44-18.52,19.44,8.29,19.44,18.52Zm-50.09,88.98c6.66,0,12.05,5.47,12.05,12.21s-5.4,12.21-12.05,12.21-12.05-5.47-12.05-12.21,5.4-12.21,12.05-12.21Zm-3.71-26.19c0,14.83-12.31,26.85-27.49,26.85s-27.49-12.02-27.49-26.85,12.31-26.85,27.49-26.85,27.49,12.02,27.49,26.85Zm108.78-9.61c0,9.11-7.65,16.49-17.08,16.49s-17.08-7.38-17.08-16.49,7.65-16.49,17.08-16.49,17.08,7.38,17.08,16.49Zm-88.85,209.4c0,8.06-6.25,14.59-13.96,14.59s-13.96-6.53-13.96-14.59,6.25-14.59,13.96-14.59,13.96,6.53,13.96,14.59Zm1.17-93.11c0,8.06-6.25,14.59-13.96,14.59s-13.96-6.53-13.96-14.59,6.25-14.59,13.96-14.59,13.96,6.53,13.96,14.59Zm-81.33,43.79c0,8.06-6.25,14.59-13.96,14.59s-13.96-6.53-13.96-14.59,6.25-14.59,13.96-14.59,13.96,6.53,13.96,14.59Zm155.96-60.28c0,8.06-6.25,14.59-13.96,14.59s-13.96-6.53-13.96-14.59,6.25-14.59,13.96-14.59,13.96,6.53,13.96,14.59Zm-211.78,108.07c0,8.06-6.25,14.59-13.96,14.59s-13.96-6.53-13.96-14.59,6.25-14.59,13.96-14.59,13.96,6.53,13.96,14.59Zm-27.49-120.53c0,8.06-6.25,14.59-13.96,14.59s-13.96-6.53-13.96-14.59,6.25-14.59,13.96-14.59,13.96,6.53,13.96,14.59Zm101.07,154.36c0,8.06-6.25,14.59-13.96,14.59s-13.96-6.53-13.96-14.59,6.25-14.59,13.96-14.59,13.96,6.53,13.96,14.59Zm95.34,15.94c0,8.06-6.25,14.59-13.96,14.59s-13.96-6.53-13.96-14.59,6.25-14.59,13.96-14.59,13.96,6.53,13.96,14.59Zm23.89,65.76c0,8.06-6.25,14.59-13.96,14.59s-13.96-6.53-13.96-14.59,6.25-14.59,13.96-14.59,13.96,6.53,13.96,14.59Zm-143.54-14.82c0,8.06-6.25,14.59-13.96,14.59s-13.96-6.53-13.96-14.59,6.25-14.59,13.96-14.59,13.96,6.53,13.96,14.59Zm158.02-114.72c0,8.06-6.25,14.59-13.96,14.59s-13.96-6.53-13.96-14.59,6.25-14.59,13.96-14.59,13.96,6.53,13.96,14.59Z"/>
  </g>
  <g id="White">
    <path class="cls-1" d="M72.5,121.02c-.08,.28,5.65-.56,6.13-.68,3.29-.78,7.39-2.73,9.88-5.11,8.62-8.21,11.21-24.71,.26-32.88,3.07-7.72,10.18-14.86,15.12-21.51,5.36-7.2,11.03-14.19,17.33-20.6,18.05-18.35,50.39-50.38,77.35-29.29-7.19,.44-15.77,5.26-22.24,8.32-5.5,2.6-10.86,5.52-16.03,8.73-2.37,1.47-4.39,3.75-7.02,4.8-3.86,1.54-7.83-1.09-11.75-1.27-5.19-.24-10.5,1.42-14.52,4.72-3.89,3.19-6.58,7.93-7.4,12.9-.93,5.66,2.56,9.55,1.57,15.03-1.56,8.71-9.13,15.17-12.84,23.2-2.85,6.19-4.6,17.08-10.3,21.14-2.43,1.74-4.26,4.6-5.78,7.29-2.84,5.02-5.26,10.28-7.84,15.45-.21,.43-.4,.95-.36,1.41,.08,.88,.34,1.75,.53,2.62,.61-.62,1.37-1.16,1.81-1.89,3.61-5.93,7.16-11.9,10.75-17.84,.58-.96,1.25-1.86,2.3-2.64-.1,.82-.18,1.64-.3,2.46-1.31,9.03-2.7,18.05-3.88,27.09-.21,1.6-.57,2.26-2.21,2.27-3.23,.03-6.48,.49-9.68,.25-10.98-.83-13.38-15.7-10.89-23.99Zm246.95,220.21s1.81-7.09,2.96-12.54c2.44-11.54-16.08-16.93-10.04-20.44s10.54-.9,11.98-2.31-6.61-14.85,.1-15.88c6.71-1.03,10.54,.54,13.33,.99s-3.9-10.58,2.24-11.99,11.77,2.47,14.55,2.6-2.37-8.55,4.79-8.35c7.16,.21,6.69,.57,10.53,.9,2.89,.24-2.93-7.2,1.1-7.31,3.8-.1,12.4,2.05,14.41,2.47s-17.67-12.29-20.13-12.1c-2.89,.22-2.01,4.65-2.68,9.3-.3,2.1-2.35,3.41-5.69,4.57-4.87,1.56-13.04,3.77-17.26,.82-7.25-5.07-5.09,1.8-9.6,6.4-6.46,6.59-16.75,7.37-24.16,3.1-13.53-7.79-10.04-30.04,4.7-33.5,4.38-1.03,8.1-.36,12.26,.34-1.97-6.33-4.81-12.8-6.75-19.32-.37-1.25-2.46-11.28-5.84-9.86-7.38,3.1-9.54,3.13-10.43,10.38-1.79,14.67-7.92,25.28-4.68,45.14,5.37,32.88,17.24,57.7,24.32,66.6Zm-13.68-231.36c2.19-8.14,5.91-18.47,10.3-24.63,7.38-10.34,29.97-.75,25.07,11.55-3.24,8.13-8.22,12.95-8.08,22.62,.12,8.19,3.26,16.38,9.99,21.37,3.94,2.93,9.8,1.49,10.64,6.4,1.63,9.52,3.15,19.06,4.71,28.59,.63,3.86,1.83,7.99,1.97,11.89,.14,3.88-.86,5.08-4.51,6.04-1.39,.37-9.55,7.62-10.91,13.05-2.36,9.41-1.31,24.07,5.71,31.08,3.17,3.17,5.71,4.44,7.61,5.71,5.28,3.52,1.44,13.78,.73,19.93-.07,.61-.67,1.32-1.22,1.68-4.92,3.2-10.49,3.9-16.12,3.45-6.85-.55-12.92-22.52-15.14-27.61-12.04-27.56-22.45-56.65-24.61-86.87-1.06-14.84-.02-29.86,3.86-44.26Zm38.4,66.9c1.82-3.07,3.67-8.21,3.28-12.95-.66-8.12-5.19-14.38-12.88-17.75-12.42-5.44-27.35,3.71-28.46,17.16-1.98,24.07,28.9,29,38.06,13.53Zm-305.49,3.57c-.6-.99-1.23-1.95-1.89-2.98,10.51-1.52,20.67-3.43,30.91-4.3,13.84-1.17,29.96,4.43,39.27,15.35,.41,.48,2.48,.37,2.77-.09,3.46-5.59-23.34-16.63-22.83-17.23,1.59-1.87,3.39-3.73,5.36-5.21,1.07-.81,2.68-1.08,4.08-1.21,2.03-.19,4.08,.04,6.13-.01,7.21-.18,14.19,.38,20.71,4.09,4.76,2.71,9.9,4.74,13.84,8.77,.78,.8,2.1,1.03,3.07,1.69,2.5,1.69,4.94,3.45,7.38,5.21,.86,.62,1.59,1.61,2.54,1.88,.73,.21,1.96-.2,2.49-.77,.34-.37,.11-1.88-.36-2.28-3.14-2.62-6.37-5.14-9.66-7.57-1.72-1.27-3.57-2.36-5.44-3.4-5.81-3.22-11.36-7.33-17.57-9.28-6.13-1.92-12.92-2.38-19.52-.73-3,.75-3.06,.57-2.4-2.42,.06-.29,.09-.59,.18-.86,2.05-6.17,1.63-6.44,7.51-6.6,5.3-.14,10.58-.75,15.88-1.07,9.98-.59,18.61,3.21,26.77,8.42,4.54,2.9,8.97,5.96,13.55,8.78,.66,.41,2.16,.18,2.8-.34,.45-.35,.32-1.79,.03-2.59-.23-.65-1.03-1.18-1.69-1.57-6.99-4.16-13.79-8.74-21.1-12.26-4.48-2.16-9.69-3.31-14.68-3.82-7.84-.8-13.62,.21-23.4,1.92-1.7,.3-2.23-.03-2.34-1.45-4.84-61.12,42.27-118.42,100.08-134.02,15.08-4.07,29.62,1.99,43.57,7.28,14.7,5.57,28.54,12.53,41.55,21.34,13.88,9.4,35.7,23.74,24.48,43.16-3.53,6.11-6.22,12.65-8.31,19.38-4.26,13.77-6.08,28.8-5.67,41.68,.53,16.62,4.51,32.92,8.75,48.96,2.83,10.69,6.52,17.18,2.17,18.33-8.23,2.19-32.87,15.5-65.31,17.1-3.22,.16-25.15-.38-28.38-.6-2.77-.19-4.94-.71-7.09,2.63-2.16,3.36-6.09,5.87-9.71,7.93-7.49,4.27-15.17,8.22-22.98,11.88-10.26,4.81-20.67,5.08-31.31,.57-4.31-1.83-7.12-4.16-7.59-8.83,7.27,4.44,15.15,5.19,22.82,2.45,11.72-4.19,23.08-9.35,33.25-16.76,.86-.62,1.86-1.09,2.87-1.44,1.72-.61,2.15-1.79,1.94-3.46-.24-1.95-1.25-2.4-3-1.54-1.8,.88-3.68,1.96-5.61,2.17-15.04,1.65-30.09,3.39-45.18,4.56-11.35,.88-22.76,2.02-34.16,.53-8.08-1.06-16.26-1.73-24.16-3.58-7.68-1.79-15.22-4.47-22.53-7.48-5.49-2.26-10.52-5.62-15.7-8.59-.53-.3-1.05-1.36-.94-1.94,2.16-10.84-.65-20.6-6.26-29.79Zm226.88-46.09c5.88,.76,13.3-.42,18.03-3.94,1.96-1.45,1.48-1.05,2.18-1.66,10.77-9.4,9.46-27.68-2.1-35.88-12.17-8.63-32.26-3.14-37.19,11.33-4.58,13.47,5.68,28.42,19.08,30.14Zm-22.24,63.38c-11.23-2.93-21.04,4.85-20.85,16.4,.15,9.39,9.72,15.8,18.58,14.64,3.3-.43,6.43-1.79,8.83-4.13,2.77-2.7,4.36-6,4.87-9.36,1.14-7.53-3.09-15.38-11.43-17.55ZM194.66,52.93c1.37,4.75,4.72,8.81,10.07,10.74,7.8,2.81,16.15,1.32,21.79-4.75,5.7-6.13,6.93-15.7,1.8-22.31-7.79-10.02-24.61-10.37-31.43,.83-2.92,4.8-3.67,10.52-2.24,15.49Zm-13.59,103.28c-12.31,17.57-3.63,44.56,18.04,49.04,1.32,.27,2.68,.46,4.09,.57,15.88,1.18,33.79-7.83,36.26-25.06,2.11-14.72-5.29-29.51-18.86-35.58-13.76-6.15-30.91-1.28-39.53,11.03Zm-43.11-51.83c-4.15-1.6-8.99,.45-11.66,3.75-3.8,4.69-5.82,11.7-5.78,17.69,.04,6.29,4.56,12.52,11.44,11.54,8.06-1.15,11.6-12.57,12.06-19.42,.34-5.02-.72-11.52-6.05-13.57Zm30.39,46.86c6.01-4.1,9.38-12.98,9-20.07-.38-7-6.42-13.74-13.83-10.08-3.83,1.89-6.49,5.73-8.18,9.54-2.98,6.7-4.4,18.77,4.36,21.87,3.17,1.12,6.12,.47,8.65-1.26Zm238.13,150.73c-2.2-8.33-7.44-19.26-16.96-20.4-.27-.03-.55-.06-.82-.09-11.52-1.11-24.91,3.26-34.31,9.51-10.25,6.81-17.7,16.33-23,27.43-3.4,7.11-6.01,14.55-6.73,22.43-.4,4.38,.02,9.04,4.47,11.61,3.28,1.89,6.73,3.77,10.35,4.72,13.65,3.56,31.5,6.84,44.32-.95,6.2-3.77,11.6-8.83,15.71-14.81,7.91-11.52,10.49-26.12,6.97-39.44Zm-344.59-25.06c-11.06,.01-21.99-2.72-32.97-4.28-2.31-.33-4.68-1.17-6.77-2.13,6.49-4.56-2.05-10.88-3.77-13.46,.56-1.65,8.84-1.1,9.91-5.64,.62-2.61-8.61-9.33-8.8-10.88,.79-2.33,10.24-.38,10.96-6.94,.61-5.51-6.86-7.16-8.81-8.84-1.99-1.77,7.18-2.83,8.51-7.19,.17-.55-1.67-2.16-2.02-2.46-2.63-2.29-2.32-2.51-3.74-3.4-4.68-2.96-.87-3.39,7.7-2.07,7.2,1.11,11.27,7.91,17.37,11.15,6.89,3.66,13.96,7.18,21.32,9.72,16.21,5.59,33.19,6.88,50.2,7.45,3.8,.13,7.62-.43,11.58-.68-2.03,8.29-4.12,15.17,4.8,19.62-10.11,5.95-21.85,21.64-27.45,21.71-16.03,.2-27.45-1.7-48.01-1.68Zm6.95-40.33c-21.51,9.56-11.42,41.23,13.32,35.52,5.8-1.34,10.92-6.54,12.69-12.05,4.62-14.41-8.88-31.08-26.01-23.47Zm-58.13,29.31c.9-17.4,1.79-34.77,2.7-52.3-9.15,10.91-10.65,41.19-2.7,52.3Zm350.94,257.26c1.84,3.43,.98,9.98,3.03,12.73-2.02-2.71-5.72-4.07-8.95-2.68-5.83,2.5-5.1,14.85-5.74,14.21-3.17-2.54-10.16-7.73-13.12-4.44-2.57,2.86-3.37,3.81-4.01,12.69-1.27-.63-7.41-13.8-12.17-10.02-3.44,2.73-4.32,5.57-5.59,12.55,0-.63-5.71-8.25-8.59-10.02-2.94-1.81-9.17-.77-8.53,12.55-3.49-4.16-5.26-14.13-12.43-12.8-.86,.16-1.61,.58-2.25,1.16-4.3,3.87-2.26,10.9-5.49,15.17-2.11,2.79-5.49-.68-7.41-1.95-5.74-3.83-12.44-6.63-16.7-12.16,1.31,1.7,7.25-2.2,8.4-3.1,2.57-2.01,4.04-5.07,4.76-8.19,1.76-7.59-.66-16.44-6.41-21.7-1.35-1.24-8.6-4.38-8.65-5.92-.7-21.65-.58-27.17-.47-41.43,0-.98,.43-2.19,1.09-2.89,5.48-5.77,10.86-11.67,16.68-17.08,4.84-4.5,11.12-6.63,17.47-8.02,9.11-1.99,18.3-1.39,27.54-.46,4.47,.45,8.69,1.29,12.81,2.92,1.83,.72,2.98,1.74,3.47,3.91,2.56,11.47,7.03,22.22,12.74,32.47,1.57,2.81,2.75,5.83,4.12,8.75,.46,.97,.75,1.75-.68,2.23-9.73,3.25-12.04,16.96-7.84,25.27,1.96,3.88,7.26,7.81,11.33,9.04,1.05,.32,13.5,.73,11.61-2.81Zm-71.91-53.14c-12.62,5.45-15.65,22.75-5.07,32.35,11.08,10.06,28.97,5.15,32.35-10.15,3.42-15.45-11.18-29.15-27.28-22.2Zm-138.64,22.59c-13.71-.73-21.53-18.75-13.79-30,2.5-3.63,8.45-7.6,12.97-7.08-11.17-7-22.77-12.32-32.85-21.04-6.34-5.49-17.12,11.45-21.99,14.38,8.88,4.98,11.08,20.97,5.81,29.6-5.26,8.63-18.52,13.11-27.28,7.61-4.36,7.25-7.48,14.4-8.12,22.78,2.08-3.95,8.01-8.53,12.46-8.19,4.45,.34,4.26,9.11,5.71,13.32,2.77-2.79,10.14-7.23,13.78-5.76,3.64,1.47,4.61,7.03,3.98,11.47,8.48-9.46,17.84-5.64,15.22,5.71,5.16-10.13,15.19-9.33,15.86,1.9,1.47-3.62,7.38-8.42,11.24-7.8,3.85,.62,7.05,4.12,7.32,8.01,19.15-14.27,33.33-35.09,39.6-58.13,.12-.43,.23-.86,.34-1.29-7.49-1.46-14.99-2.91-22.48-4.37,8.36,13.44-2.12,29.7-17.79,28.86Zm-20.07-370.4c2.96,.7,5.95-1.24,6.68-4.34s-1.08-6.17-4.04-6.87-5.95,1.24-6.68,4.34,1.08,6.17,4.04,6.87Zm32.7,16.57c2.96,.7,5.95-1.24,6.68-4.34s-1.08-6.17-4.04-6.87-5.95,1.24-6.68,4.34,1.08,6.17,4.04,6.87Zm85.51,325.2c-7.12,4.31-15.92,4.56-24.24,4.24-27.46-1.06-55.07-7.14-79.06-20.56-23.98-13.42-44.45-35.48-53.9-61.29,12.39,12.47,31.03,3.76,31.72-10.78,.52-11.04-6.07-21.6-17.62-21.98-8.17-.27-16.09,3.6-18.54,13.73-1.27-31.08,.63-47.15,17.45-69.99,5.68-7.72,12.96-16.34,23.47-28.55,2.21-2.56,6.88-6.26,9.63-8.23,3.11-2.22,4.3-2.85,7.96-1.5,19.43,7.2,42.12-4.7,57.47-16.21,4.2-3.15,5.11-6.99,10.58-7.37,4.74-.33,11.27,.74,15.98,.81,7.05,.1,14.1,.07,21.14-.37,14.24-.89,28.5-3.49,41.47-9.64,2.92-1.38,3.31-3.92,6.38-4.73-.14,2.13-1.84,4.91-2.54,6.98-2.35,6.95-3.44,16.22-4.44,23.47-3.47,25.07,4.96,50.53,15.86,76.76,1.69,4.07,5.07,5.52,2.67,9.22-1.58,2.42-4.6,3.35-7.15,4.72-7.86,4.25-11.77,14.61-8.69,23,3.09,8.38,12.79,13.73,21.52,11.87,8.74-1.86,15.42-12.01,14.83-20.92,5.69,5.11,26.45,8.25,29.5,8.25,.04,0,.06-.04,.1,.41,.61,7.19,2.92,16.14,.14,23.01-9.97-5.21-21.92-1.16-26.68,8.96-3.87,8.22-5.1,18.69,1.54,24.89,4.78,4.46,6.29,1.66,5.03,8.39-.74,3.93-5.6,10.67-8.98,12.69-1.93,1.15-6.35-3.38-10.48-4.24-4.09-.85-8.23-1.36-12.4-1.53-8.1-.34-16.2,.42-24.27,.97,13.81-5.72,13.49-24.85,.07-33.06-18.06-11.05-38.05,11.43-26.94,28.99,3.7,5.85,10.34,8.19,16.79,6.94-10.66,4.15-15.59,16.75-25.38,22.68Zm-95.31-121.09c8.8,3.39,19.47,.56,23.68-8.04,8.42-17.18-7.51-34.35-23.26-27.91-11.37,4.64-15.5,18.92-9.3,28.76,2.01,3.2,5.51,5.89,8.88,7.19Zm38.27,49.02c-7.91-7.67-19.66-6.86-27.28,.88-7.8,7.92-7.24,20.76,.86,28.14,7.69,7,21.08,7.05,28.05-.93,.19-.22,.38-.46,.57-.68,6.36-7.64,5.13-20.3-2.2-27.41Zm31.5-112.46c-.37,11.07,6.84,19.43,16.07,20.3,12.8,1.21,20.77-5.41,21.15-19.45,.39-14.65-17.65-23.36-28.76-15.65-5.48,3.8-8.24,8.35-8.46,14.8Zm30.1,109.87c2.46-2.09,4.36-5.52,5.3-8.47,3-9.42-1.38-21.48-10.76-25.24-6.09-2.44-13.67-1.47-18.85,2.63-7.42,5.87-8.79,16.94-5.38,25.25,4.59,11.19,21.17,13.08,29.68,5.84Z"/>
  </g>
</svg>