<?xml version="1.0" encoding="UTF-8"?>
<svg xmlns="http://www.w3.org/2000/svg" viewBox="0 0 400 602.4">
  <defs>
    <style>
      .cls-1 {
        fill: #fff;
      }

      .cls-2 {
        fill: #900;
      }

      .cls-3 {
        fill: #47271a;
      }

      .cls-4 {
        fill: #ffd62e;
      }

      .cls-5 {
        fill: #c60;
      }
    </style>
  </defs>
  <g id="Black">
    <path d="M48.92,511.85c-.23-.26-1.38-1.65-1.87-2.21,.89-.06,11.96-.07,16.98-.51,8.45-.75,15.87,.8,21.96,6.79,2.93,2.88,4.8,3.56,10.02,5.26,23.54,7.68,43.98,21.88,65.3,34.06,8.47,4.84,17.45,9.69,26.73,12.8,32.85,11.02,67.93,14.21,102.16,8.66,9.14-1.48,17.88-3.97,26.66-6.79,7.95-2.55,15.18-6.18,22.58-10.02,10.62-5.5,20.47-13.08,27.51-22.75,7.98-10.97,7.6-20.57,4.08-33.62-1.51-5.59-6.11-13.25-12.51-17.15-8.6-5.25-20.66-7.29-20.55-7.47-.11,.17-.06,1.38-.11,1.73-.16,1.03-.39,2.03-.77,3.01-.76,1.97-1.99,3.77-3.58,5.16-1.4,1.23-3.06,2.14-4.84,2.68-1.66,.51-3.33,.25-4.95,.62-1.24,.29-2.41,1.24-3.4,2-.4,.3-1.52,1.6-2.04,1.61-.3,.33,3.77,7.36,4.24,8.32,1.22,2.48,2.05,5.27,1.53,7.98-1.87,9.68-11.72,13.58-19.53,15.96-5.3,1.61-10.94,3.03-16.47,3.23-2.77,.1-5.74,.3-8.49,0-4.48-.49-8.04,1.21-12.4,1.87-4.73,.71-10.02,0-14.6-1.36-6.27-1.87-13.03-7.66-17.15-12.73-7.75-9.53-2.66-56.05-1.36-67.41,.24-2.08,.68-8.66,.5-9.11-.16-.4-3.73-1.08-5.26-.4-8.02,3.56-16.3,1.19-16.81,1.19-.72,0,0,29.54,0,29.54,0,1.02,1.6,2.63,4.92,6.28,8.78,9.65,12.99,20.41,9.7,32.9-.73,2.76-3.62,6.77-6.48,8.19-4.56,2.26-3.3,1.78-8.15,3.4-1.02,.34-10.7,6.11-25.81,2.89-.5-.11-12.06,5.26-27.85-.68-2.06-.78-2.72,.57-8.49-2.38s-9.07-11.08-9.17-17.66c-.04-2.7,.86-5.07,1.3-7.74,.34-2.05,1.42-5.5,1.78-5.91-1.27,.89-7.94,1.73-13.01,4.38-7.3,3.81-18.18,5.5-24.11,2.85-3.11-1.39-5.92,1.37-10.57,.53-5.47-1-5.3-3.94-9.41-3.7-5.39,.32-10.15-3.32-12.69-6.66-6.49-8.54,2.01-22.12,9.82-28.74,8.46-7.17,20.25-11.04,20.38-11.72-.81-.17-14.22-7.34-20.66-13.91-6.77-6.91-11.87-15.8-13.41-25.34-2.95-18.31,2.14-36.65,9.93-50.89,4.79-8.77,11.03-16.67,17.66-24.13,3.33-3.75,6.79-7.38,10.31-10.94,2.01-2.03,8.41-7.31,8.4-7.73-.01-.29-73.4-166.01-81.84-191.87-3.74-11.45-5.04-24.31-3.88-36.3,1.36-14.05,10.45-27.85,24.39-32.01,30.24-9.03,60.1,8.24,83.59,25.49,3.89,2.86,9.26,7.56,13.51,11.46,.43,.4,3.29-7.36,12.8-6.68,7.91,.56,13.3,4.43,13.41,3.74,.18-1.07,.83-2.19,1.23-3.18,.85-2.08,1.71-4.16,2.56-6.24s1.75-4.32,2.54-6.51c.52-1.43,1.68-3.2,1.07-4.76-.46-1.18-1.64-2.31-2.22-3.49-.92-1.86-.8-3.5-.48-5.55s.45-2.94-.49-4.99c-.87-1.91-2.15-3.58-3.32-5.31-2.85-4.23-8.38-13.1-8.41-13.16-.04-.1,5.07-26.48,5.15-26.41,.06,.06,10.84,9.85,10.86,9.86,0,.03,2.15-8.84,2.22-8.78,.05,.05,7.14,6.08,7.14,6.13,0,.14-1.74,9.3-1.74,9.2s2.78,3.16,2.54,3.07c-.14-.05-.86,3.03-.89,3.23-.25,1.46-.88,3.23-.16,4.63,.53,1.03,1.64,1.74,2.79,1.8,1.39,.07,2.73-.78,3.41-1.99,.71-1.26,.69-2.71,.25-4.06-.17-.51-1.31-3.4-1.18-3.61,.12-.19,9.64-28.41,10.21-28.51,.34-.06,8.71,15.29,8.94,15.96,.19-.56,7.24-17.21,7.29-17.23-.05,.25,8.76,17.26,8.91,17.6,.28,.66-1.79,6.79-1.11,10.3,.45,2.3,2.46,4.22,4.78,4.55,1.31,.19,2.72-.12,3.74-.96,2.6-2.15,1.4-4.96,2.33-6.68,3.49-6.5,12.45-22.31,13-22.52,.45-.17,9.87,22.7,11.38,27.68,.35-.38,3.02-11.12,3.53-11.67,.67-.72,10.22-9.44,10.94-9.61-.04,.39,1.69,9.66,1.59,9.78-.23-.23,10.76-8.13,10.31-7.45,0-.11,0,7.49-2.48,20.4-2.03,10.54-4.49,19.89-5.6,23.06-.63,1.59-.35,4.16-.32,4.6,.22,3.01-1,5.98-3.33,8.09-.27,.25-1.95,11.03-1.73,11.71,.2,.59,3.27,4.22,4.02,4.92,3.85,3.62,3.73,15.32,3.37,14.71-.68-1.13,8.15-6.47,15.33-4.97,2.28,.48,4.94-2.65,6.45-3.81,2.22-1.69,5.19-3.56,7.31-5.14,4.33-3.22,9.25-5.65,14.26-7.66,11.27-4.5,26.21-2.62,34.11,6.86,7.72,9.27,5.93,21.17,1.77,31.58-4.59,11.49-10.86,22.21-15.5,33.67-6.87,16.96-12.79,41.79-13.88,60.17-1.81,30.34,1.34,46.94-4.3,73.35-2.57,12.04-8.42,22.52-14.09,33.28-.72,1.37-10.65,19.5-10.11,19.84,13.73,8.74,25.95,25.89,26.54,45.37,.58,19.46-8.83,38.38-22.32,51.66-2.81,2.77-8.32,7.3-8.47,7.47-.19,.34,12.45,9.95,12.81,10.39,.25,.31,5.06,.87,7.66,.94,15.32,.43,29.46,4.49,42.61,12.25,11.42,6.75,19.73,16.02,24.27,28.09,16.34,43.41-20.25,72.78-50.52,89.59-58.1,32.28-137.89,25.08-194.59-6.96-23.43-13.24-65.88-38.37-66.56-38.37-.76,0-3.78,4.66-8.15,7.64-6.24,4.25-14.83,6.62-22.3,7.53-4.58,.56-7.29-1-8.15,0-1.36,1.58-16.7,3.09-23.04,.11-4.58-2.15-6.85-1.47-11.6-3.51-2.97-1.27-7.87-4.75-11.04-6.34-.45-.23,6.28-2.89,11.38-4.41,.45-.14,4.77-1.33,5.09-1.7-.28-.17-6.86-.84-7.88-1.36,1.14-1.11,13.87-8.4,16.92-10.57,.09-.07-4.38,.14-5.07,0,.23-.46,3.12-4.66,6.77-7.19s10.89-3.42,13.9-4.14c2.83-.68,5.65-.34,7.81-.34Z"/>
  </g>
  <g id="Gold">
    <g>
      <path class="cls-4" d="M287.15,39.83c-3.35,0-6.07-3.73-6.07-8.34,0-1.07,.75-3.35,1.02-4.29-.88,.89-2.19,3.09-2.36,4.36-.34,2.57,.69,5.18,.77,7.77,.13,4.09-.74,8.59-3.61,11.67-2.27,2.44-5.99,3.71-9.07,2.43-2.83-1.17-4.55-4.21-4.97-7.25-.48-3.51,.12-7.77,1.88-10.87,1.01-1.78,3.43-5.23,3.37-5.43-.11-.4-8-23.72-8.56-23.15-.47,.47-11.22,20.93-11.42,21.41-.11,.27,1.07,8.96,.05,12.78s-2.32,6.47-5.43,9.17c-3.75,3.26-9.61,3.09-13.75,.34-7.52-4.99-5.56-21.76-5.44-22.13,.19-.63-10.6-22.73-11-22.61-.73,.21-8.4,24.48-8.38,24.68,.03,.28,2.5,4.58,3.39,6.8,1.32,3.29,1.61,7,.13,10.3-1.68,3.77-5.3,6.96-9.64,5.33-2.37-.89-4.16-2.97-5.12-5.32-1.36-3.33-1.14-6.16-.04-9.4,.27-.81,1.66-7.38,1.58-7.55-.11-.24-15.95-16.25-16.2-16.18-.17,.19-4.01,21.8-4.04,21.73-.03-.06,11.83,18.29,12.33,18.93,.19-.18,2.18-1.5,3.47-1.5,3.35,0,6.07,3.73,6.07,8.34s-2.72,8.34-6.07,8.34c-.28,0-.56-.04-.84-.09-.89,3.76-5.4,11.81-3.47,9.52,0,0,5.94-5.94,11.72-1.36,1.92,1.52,7.13-4.08,10.53,2.21,1.52,2.81,6.28-4.75,11.55,1.19,1.67,1.89,5.43-5.26,11.38,.17,2.16,1.97,5.26-4.58,11.38,.17,1.34,1.04,4.75-4.92,9.85,.34,1.64,1.7,5.6-5.09,10.7-.34,1.4,1.31,6.28-4.24,11.38,.85,.9,.9,4.92-2.89,8.49-.34,.38,.27,.75,.53,1.19,.62-.39-1.67-2.38-2.57-3.01-4.08-.54-1.3,1.65-11.42,1.64-11.42-3.35,0-6.17-4.19-5.89-8.84s2.88-7.57,6.23-7.57c1.32,0,2.66,.34,4.53,2.04,.67-1.5,2.57-11.48,3.34-14.38,.07-.28,.14-.56,.21-.84-1.04,1.14-2.35,1.82-3.78,1.82Zm-102.1,2.49c-3.35,0-6.07-3.73-6.07-8.34s2.72-8.34,6.07-8.34,6.07,3.73,6.07,8.34-2.72,8.34-6.07,8.34Zm22.91-11.28c0-4.6,2.72-8.34,6.07-8.34s6.07,3.73,6.07,8.34-2.72,8.34-6.07,8.34-6.07-3.73-6.07-8.34Zm7.2,39.58c-3.35,0-6.07-3.73-6.07-8.34s2.72-8.34,6.07-8.34,6.07,3.73,6.07,8.34-2.72,8.34-6.07,8.34Zm37.13,.68c-3.35,0-6.07-3.73-6.07-8.34s2.72-8.34,6.07-8.34,6.07,3.73,6.07,8.34-2.72,8.34-6.07,8.34Zm4.53-31.47c-3.35,0-6.07-3.73-6.07-8.34s2.72-8.34,6.07-8.34,6.07,3.73,6.07,8.34-2.72,8.34-6.07,8.34Z"/>
      <path class="cls-4" d="M294.67,15.63c-.16,.01-6.27,4.81-9.7,8.33,.17-.02,1.33-.75,2.18-.81,3.6-.25,6.09,4.46,6.11,6.3-.02-.37,1.58-13.58,1.41-13.82Z"/>
    </g>
  </g>
  <g id="Light_Brown" data-name="Light Brown">
    <path class="cls-5" d="M46.09,514.06c3.25,.04,6.47,.46,9.94,.71-1.51-.68-4.45-2.25-4.41-2.36,1.85,0,3.71,.09,5.55-.02,3.33-.19,6.65-.53,9.98-.74,5.93-.38,10.98,1.57,15.13,5.73,4.85,4.87,12.21,6,18.37,8.42,10.84,4.25,20.78,10.45,30.82,16.27,10.48,6.07,20.87,12.31,31.37,18.34,26,14.93,40.98,16.4,63.16,19.87,18.21,2.85,36.75,3.55,55.01,1.02,16.08-2.23,33.43-6.03,48.39-12.73,15.97-7.15,33.91-17.45,42.79-33.11,9.85-17.37,3.83-42.58-13.75-52.98-5.75-3.4-12.56-3.74-20.83-6.57-.6-.21-2.16-6.49-5.77-12.23s-9.25-10.87-9.17-10.98c.07,.01,11.86,1.82,13.54,2.03,4.7,.6,9.34,1.6,13.87,2.99,9.02,2.77,17.62,7.07,25.01,12.97,16.09,12.84,24.37,32.53,19.64,52.98-4.67,20.19-21.33,34.41-37.82,45.69-54.53,37.32-129.53,36.4-188.23,9.58-16-7.31-31.2-16.21-46.32-25.17-12.94-7.67-25.61-15.71-39.74-21.06,.5,.58-8.05,7.09-8.75,7.48-2.91,1.62-6.04,2.93-9.21,4.04-3.02,1.06-6.2,1.73-9.34,2.42-.57,.12-6.38,1.09-6.48,.91,2.02-1.27,7.45-5.1,7.72-5.36-.38-.09-12.93,6.15-19.72,7.11-4.49,.63-8.88,.58-13.31-1.98,2.13-.38,3.85-.72,5.59-.99,7.21-1.1,13.94-3.39,19.84-7.7,.99-.73,1.84-1.64,2.6-2.81-12.07,7.55-25.23,10.88-39.51,8.12-1.86-.36-4.45-1.63-6.23-2.49,.83,.4,3.12-.54,3.94-.78,1.46-.43,2.88-.99,4.25-1.67,2.55-1.27,5.64-2.96,7.23-5.37-.31,.47-5.92-.06-7.09-.14,3.17-2,6.31-4.02,9.38-6.19,1.51-1.07,3-2.15,4.51-3.23,1.3-.93,3.12-1.84,4.15-2.98-.94-.22-6.07,.16-6.28,.44,2.52-3.48,7.72-5.29,11.68-6.42,2.94-.84,5.71-1.07,8.46-1.04Zm261.79,9c2.02-.94,5.31-2.67,6.47-4.69,.65-1.14,.08-4.28-1.26-7.04-1.69-3.49-4.33-7.19-4.28-7.42,.06,0,4.14,2.08,6.02,5.38,2.12,3.74,1.63,7.93,1.92,8.07,.68,.33,2.93-2.53,3.36-3.47,2.19-4.77-2.22-14.54-7.72-19.44-2.59-2.31-5.52-4.05-8.61-5.58s-5.93-3.44-9.06-4.92-6.13-3-8.5-5.41c-5.27-5.37-2.64-11.16-.72-17.39,0-1.79,1.31-4.25,1.84-5.98,.7-2.26,1.39-4.51,2.09-6.77,1.31-4.23,2.13-8.64,3-12.99,1.84-9.26,3.27-18.59,4.88-27.88,1.98-11.44,3.74-22.92,5.29-34.42,.78-5.75,1.5-11.51,2.17-17.28,.37-3.19,1.82-12.52,1.46-12.98-11.48,10.13-23.58,19.57-36.2,28.25-6.56,4.52-15.7,8.08-21.21,13.84-4.99,5.21-7.52,14.39-9.1,21.23-1.71,7.39-1.34,14.36-1.69,21.79-.37,7.72-4.96,62.61-4.44,70.78,.44,6.91,1.23,13.84,5.38,19.63,6.07,8.45,17.48,12.82,27.67,11.03,2.83-.5,6.06,.08,7.78-2.28,3.34-4.58-.47-16.34-.39-16.32,.18,.06,2.69,2.37,3.54,3.92s1.32,3.22,1.51,4.94c.28,2.56,.61,5.84-1.09,7.85,2.26,.23,8.4,.27,12.67-.15,3.64-.37,4.79-.87,5.38-4.47,.74-4.49-2.26-15.13-2.45-15.33,.09-.03,3.53,3.69,4.95,8.19,1.03,3.26,.25,6.91-.12,9.91,3.22-.22,6.54-1.23,9.47-2.6Zm-124.56-10.13c-.4-4.48-.28-9.22,1.38-13.47,1.14,3.53,1.03,7.6,1.37,11.3,.2,2.18,.55,4.34,.92,6.49,.31,1.82,.32,6.13,1.68,6.64,.85,.32,2.15,.39,3.06,.42,3.48,.12,7.01,.25,10.44-.34s7.46-1.05,9-2.97c1.72-2.15,.67-5.9,.39-9.66-.47-6.12-2.28-12.25-5.7-17.39,4.2,1.74,6.18,7.42,7.29,11.46,.48,1.74,2.01,11.94,1.42,14.15,5.18-1.1,9.38-5.83,9.8-13,.74-12.6-5.34-22.27-14.36-30.31-.48-.42-1.14-.97-1.17-1.5,0-28.27-.7-56.38,.74-84.65-.19,.1,2.39,5.76,2.58,8.47,.12,1.68,.12,3.53,.17,5.21,.26,7.91,.18,9.55,.11,14.83-.02,1.51-.52,21.66,.34,21.73,5.37,.18,10.39,.29,15.62-1.13,6.61,0,6.75-10.82,6.11-15.85-.11-.84-1.13-2.77-1.72-3.53-.14-.18-.54-.32-1.86-.74,.79,.25-.63-22.49-1.02-24.57-1.51-7.95-2.94-16.2-7.96-22.81-4.19-5.52-16.61-19.24-21.9-9.65-2.09,3.79-11.7,24.22-12.85,24.17-.21-.17-1.23-14.11-1.44-17.63-.38-6.1-.43-12.81-1.93-18.77-3.02-11.91-8.82-23.46-17.89-31.91-1.04,5.9-1.8,11.79-4.12,17.38-1.17,2.82-2.58,5.53-4.22,8.11-.63,.98-4.74,5.29-4.62,6.16-.89-6.44,.64-12.93-1.15-19.33-1.75-6.22-4.9-12.05-9.27-16.82-8.91-9.72-18.43,.91-26.18,7.09-10.62,8.47-19.95,18.55-27.54,29.81-7.03,10.44-12.62,22.03-14.96,34.4s-1.28,25.59,4.35,36.85c4.69,9.41,12.7,16.94,22.07,21.62,4.78,2.39,9.74,3.15,15.03,3.95,2.4,.36,14.94,2.72,14.94,3.06-15.84,0-30.2,1.28-42.96,11.65-5.57,4.53-10.92,11.43-11.65,18.83-.3,3.09,.25,6.31,2.65,8.24,1.08,.87,6.61,4.8,7.81,3.06,.51-.73-1.12-7.75,.34-13.58,2.72-10.87,8.38-9.96,7.82-10.53-.55-.56-4.5,10.73-4.7,11.58-.65,2.65-.72,10.93,.28,13.54,1.36,3.56,12.18,4.5,13.92,3.4,.45-.28-.14-2.53-.17-2.94-.12-1.39-.16-2.79-.12-4.19,.18-5.4,1.63-10.97,3.67-15.96,.6-1.48,1.52-4.25,3.08-5.09-.14,.08-.19,2.25-.22,2.47-.27,1.95-.61,3.88-.97,5.82-.97,5.32-2.03,10.69-1.58,16.12,.07,.8,.17,1.62,.53,2.34,1.56,3.06,8.73,1.74,11.4,1.38,1.97-.27,3.94-.63,5.84-1.23,.93-.29,2.3-.54,2.93-1.34,.75-.96,.4-2.54,.21-3.62-.67-3.79-.62-7.7,.13-11.48,.38-1.95,.95-3.86,1.7-5.7,.33-.82,.68-1.65,1.13-2.41,.27-.47,.69-.82,.95-1.3,0,.6-.1,3.62-.22,4.52-.25,1.82-.41,3.66-.47,5.5-.13,3.75,.13,7.51,.78,11.2,.09,.49,.19,1,.48,1.4,.8,1.09,2.46,.2,3.43-.18,2.29-.89,4.32-2.31,6.49-3.45,4.8-2.55,8.54-6.88,10.58-11.89,1.93-4.74,2.7-10.78,.57-15.57-1.71-3.84-4.98-6.76-8.88-8.26,2.41,.25,4.82,.72,7.21,1.11,.02-.32,.07-.74,.06-1.15-.41-11.07-1.2-22.06-2.14-33.15-2.38-28.06-5.65-56.05-7.13-84.17-.41-7.77-.53-18.83,.02-18.92,.09,.16,2.26,11.18,2.81,16.12,1.7,15.28,2.1,27.81,3.4,41.83,.56,6.02,1.08,12.04,1.57,18.07,1.16,14.02,2.2,28.04,3.34,42.06,.91,11.13,2.27,22.22,3.06,33.36,.41,5.85,.85,7.79-2.66,12.41-2.79,3.67-5.24,7.59-7.33,11.69-2.45,4.81-4.43,10.1-3.99,15.49,.57,7.04,4.78,13.26,11.45,14.93,.52,.13,2.86,.73,3.4,.68,1.83-.17-.42-3.72-.71-4.43-1.48-3.63-2.26-7.85-1.66-11.76,.91-5.89,2.72-10.75,5.34-13.91-.58,6.22-1.15,4.06-2.4,13.46-.51,3.86,.7,13.52,3.42,16.56,3.69,4.1,12.03,3.83,16.98,2.97,2.95-.51,4.61-1.01,5.35-2.04,1.34-1.84-.72-6.6-1.11-10.8Zm.85-403.42c4.12-1.89,2.21-6.97,.42-9.86-2.68-4.33-7.03-7.33-11.85-8.84-2.28-.72-4.78-1.2-7.23-1.23-1.25-.02-2.5,.08-3.73,.3-.83,.15-2.96,.36-3.34,1.14,2.18,1.68,5.28,2.13,7.56,3.8,3.48,2.55,5.19,5.57,6.54,7.13,3.06,3.57,4.67,10.74,11.63,7.56Zm-26.83-16.81c-.22-.22-4,3.15,1.95,15.03,5.42,10.82,11.51,10.05,11.61,9.56,.02-.19-.86-1.58-1.82-2.26-1.26-.9-2.24-2.07-2.9-3.47-1.09-2.29-1.76-4.77-2.24-7.25s0-4.92,.19-7.51c.09-1.21-.65-1.72-1.68-2.28-.4-.22-4.78-1.48-5.11-1.81Zm19.1,16.98c-.93-.59-1.65-1.67-2.8-3.14-1.78-2.29-3.4-4.41-4.58-6.79-.56-1.12-2.03-2.63-3.43-2.34-.9,2.08-1.01,4.88-.48,7.09,1.61,6.79,4.5,9,4.5,9-.93,.34,7.73-3.23,6.79-3.82Zm61.31,28.97c-.7,.35-.31,2.46-.44,3.16-.45,2.36-1.98,4.51-3.98,5.82-3,1.96-6.83,2.28-10.37,1.69s-6.88-1.99-10.23-3.25c-2.94-1.1-8.24-3.44-11.36-2.61,.4,1.42,2.77,1.04,3.02,2.78,.18,1.32-.72,3.35-.78,4.76-.13,3.1,.46,6.23,1.75,9.05,3.06,6.71,9.23,11.04,16.68,10.29,1.14-.11,7.3-2.31,7.31-1.31,0,.25,0,.48,.03,.59,.01,.09,0,.18-.01,.27-1.56,7.81-3.77,19.15-3.58,21.3,1.31-.65,1.63-3.54,1.9-4.78,.52-2.44,1-4.88,1.47-7.33,.91-4.76,1.77-9.53,2.79-14.27,1.05-4.9,1.4-9.78,1.51-14.79,0-.16,.11-.32,.23-.42,2.37-1.99,4.39-4.41,4.85-7.57,0-.05,.02-.16,.03-.3,.08-.96,.19-3.56-.79-3.08Zm43.03,13.48c-.39-1.42-1.09-2.78-.78-4.28s1.72-2.72,2.37-4.18c1.41-3.17,1.56-7,.08-10.18,.52,1.12-.77,5.62-1.06,6.98-.44,2.05-1.29,4.12-3.08,5.36-1.94,1.34-4.47,1.37-6.84,1.35-2.25-.02-4.51-.04-6.76-.07-1.22-.01-2.51-.05-3.51-.74-2.05-1.41-.45-5.56-.4-7.57,.07-2.8-.25-6.03-2.17-8.24-.59,1.24-.36,3.23-.24,4.63,.26,3.09,.25,6.14-.34,9.19-1.26,6.48,1.63,13.03,3.31,19.19,2.31,8.46,4.23,17.03,6.72,25.44,.29,.97,.86,1.83,1.09,2.82-.17-.72,.61-2.15,.51-3.07-.38-3.55-2.01-7.33-2.96-10.78-.43-1.57-.96-3.12-1.31-4.71-.15-.67-1.15-2.7-.6-3.28,.52-.54,3.88,.07,4.69-.01,2.02-.22,3.98-.91,5.68-2.02,1.71-1.12,3.1-2.63,4.11-4.38,2-3.43,2.54-7.62,1.49-11.45Zm21.27,323.22c.46,.14,5.97,6.26,5.3,12.23-.14,1.25,4.28,4.41,6.95,4.41,4.92,0,8.49-1.58,7.3-6.54-.98-4.09-4.41-12.46-4.46-12.84,1.92,.61,3.9,4.09,4.79,5.7,1.41,2.55,2.25,5.42,2.42,8.33,.04,.66,.08,1.41,.59,1.83,.63,.52,1.59,.23,2.25-.23,2.39-1.65,5.52-3.12,6.69-5.99,3.94-9.66-10.15-25.03-16.61-30.85-3.66-3.29-8.54-5.34-11.87-8.8-3.97-4.13,1.01-5.94,4.1-8.73,7.9-7.15,14.74-15.59,19.37-25.22,5.64-11.74,7.87-25.31,4.97-38.01-1.98-8.65-7.02-16.52-12.75-23.32-3.65-4.33-8.51-8.22-9.59-8.32-1.46-.13-2.76,6.86-3,9.35-.46,4.67-.95,9.34-1.48,14-1.05,9.34-2.23,18.66-3.58,27.96-3.4,23.47-6.84,47.67-14.21,70.28-1.23,3.76-3.13,7.79-2.1,11.87,1.4,5.53,12.52,10.73,17.17,13.74-.08-5.76-2.12-10.52-2.27-10.86Zm-3.93-340.52c-.27,3.22,1.9,8.06,2.32,10.55,.83,5,1.15,10.08,.96,15.14-.43,11.76-3.47,23.76-9.59,33.87-1.6,2.64-3.44,5.22-5.41,7.6-.82,.99-1.67,1.87-2.63,2.74,.61-.55-5.12-6.24-5.72-6.74-2.74-2.29-4.83-2.79-8.01-3.7-2.48-.71-3.66-4.26-7.24-4.98-7.06-1.43-17.79-2.48-24.9-1.36-2.9,.46-5.75,3.59-8.6,4.3-3.63,.91-7.58,.67-11.28,1.64-4.48,1.17-8.79,3.04-12.7,5.54-.75,.48-1.52,.99-2.41,1.11-3.29,.43-8.16-7.64-9.75-9.86-6.87-9.58-10.41-19.74-10.67-31.52s1.63-23.53,2.2-35.28c.08-1.58,.23,.85,3.28,.51,3.06-.34,9.13-4.62,13.78-6.31,.43-.16-4.28,4.95-3.94,5.12,.38,.19,10.7-1.99,11.87-2.06,1.39-.08,3.76,2,6.64,1.89,2.68-.1,7.81-1.53,8.07-1.62,.01,.01-4.84,4.9-4.87,5.03-.14-.02,5.52-.12,7.6-.02,4.36,.22,8.35,.77,10.2,.85,10.21,.42,13.35-4.55,16.55-6.24,.05-.03-3.21,2.72-1.95,3.07,3.31,.93,15.07-3.37,14.95-3.28-.44,.34-1.12,3.32-1.36,4.41,4.61-1.34,9.64-.97,14.34-2.32,4.33-1.25,8.88-2.68,11.66-6.21,3.98-5.05,3.52-10.57,2.54-16.28-.18-1.07,3.03-2.69,3.64-2.96,12.91-5.63,13.28,8.29,11.34,16.9-.86,3.81-2.3,7.48-4.27,10.85-1.66,2.84-6.38,6.41-6.65,9.62Zm5.1-20.41c-.04-1.84,.18-4-.69-5.42-1.17-1.92-.03-2.91,.66-4.17,.69-1.25,1.56-2.4,2.35-3.59-.58-.07-1.1,.03-1.33,.35-1.41,1.95-2.87,3.88-4.07,5.96-.73,1.26-.9,2.83-1.57,4.13-2.2,4.3-4.86,8.25-9.45,11.29,1.01,.16,1.75,.52,2.1,.3,2.65-1.73,4.75-4.06,6.33-6.77,1.39-2.37,2.5-4.9,3.63-7.15,2.18,7.76-7.81,11.67-6.5,19.56l8.54-14.49Z"/>
  </g>
  <g id="Red">
    <path class="cls-2" d="M218.24,31.36c0,3.36-1.9,6.09-4.24,6.09s-4.24-2.73-4.24-6.09,1.9-6.09,4.24-6.09,4.24,2.73,4.24,6.09Zm38.57-5.9c-2.34,0-4.24,2.73-4.24,6.09s1.9,6.09,4.24,6.09,4.24-2.73,4.24-6.09-1.9-6.09-4.24-6.09Zm-41.54,30.96c-2.34,0-4.24,2.73-4.24,6.09s1.9,6.09,4.24,6.09,4.24-2.73,4.24-6.09-1.9-6.09-4.24-6.09Zm37.04,.52c-2.34,0-4.24,2.73-4.24,6.09s1.9,6.09,4.24,6.09,4.24-2.73,4.24-6.09-1.9-6.09-4.24-6.09Zm-67.28-28.81c-2.34,0-4.24,2.73-4.24,6.09s1.9,6.09,4.24,6.09,4.24-2.73,4.24-6.09-1.9-6.09-4.24-6.09Zm5.1,27.94c-2.34,0-4.24,2.73-4.24,6.09s1.9,6.09,4.24,6.09,4.24-2.73,4.24-6.09-1.9-6.09-4.24-6.09Zm97.37-30.68c-2.34,0-4.24,2.73-4.24,6.09s1.9,6.09,4.24,6.09,4.24-2.73,4.24-6.09-1.9-6.09-4.24-6.09Zm-4.69,27.91c-2.34,0-4.24,2.73-4.24,6.09s1.9,6.09,4.24,6.09,4.24-2.73,4.24-6.09-1.9-6.09-4.24-6.09Z"/>
  </g>
  <g id="White">
    <path class="cls-1" d="M229.79,162.71c-.66-4.66-3.16-7.21-7.89-7.5-2.91-.18-4.64,1.54-5.9,3.69-2.01,3.42-.68,6.3,2.15,8.76-.1,.13-.2,.26-.3,.39-.87-.33-1.8-.56-2.61-.99-5.18-2.74-8.11-7.07-8.67-12.88-.24-2.48,0-5.01-.04-7.52-.01-.97,.34-1.16,1.19-.86,2.96,1.05,5.87,2.31,8.91,3.04,4.1,.99,8.09,2.9,12.5,1.97,.81-.17,1.6-.39,2.49-.62,.37,4.28,.16,8.43-1.84,12.51Zm-44.21-81.28c-.56-.04-1.18,.23-1.4,.75-.79,1.84-1.49,3.45-2.19,5.99-.04,.16-.98,.89,3.61,4.46,1.9,1.48,4.48,3.19,6.79,2.26,3.4-1.36,3.4,4.47,10.19,2.26,3.59-1.17,2.49,4.7,7.92,1.81,3.66-1.94,3.62,4.7,9.06,1.13,3.33-2.18,3.62,5.49,9.06,.91,2.96-2.5,3.79,2.83,8.38,.45,4.05-2.1,3.85,4.08,9.96,0,3.31-2.21,3.57,2.94,9.51-.45,4.31-2.46,1.98,4.3,9.28,.23,3.15-1.76,7.13,3.11,10.87-1.13,3.05-3.47,9.68,.74,11.04-4.87,.75-3.1,.04-8.73-1.19-9.34-1.7-.85-4.24-2.89-5.26-2.04-6.44,5.36-9.17-1.36-11.89,.17-5.64,3.17-7.3-2.55-10.02-.51-6.27,4.7-7.51-1.41-11.21,.34-6.79,3.23-5.82-2.17-9.17-.34-9,4.92-7.48-2.64-11.89-.17-8.49,4.75-7.84-3.11-11.21-1.36-6.12,3.18-8.37,2.05-11.21-1.53-.68-.86-7.34,2.98-7.98,.17-1.07-4.69-9.01,.95-11.06,.8Zm77.13,77.55c1.9-1.53,4.82-3.56,8.64-1.69,4.17,2.04,4.84,7.3,4.22,8.5-.35,.67,3.93-2.47,4.95-8.76,.49-3.02-.68-8.07-2.63-7.81-2.96,.39-17.91-.51-17.91-.51-.48,.03,1.85,10.98,2.73,10.26Zm-31.72,71.47c3.85-1.07,7.63-2.37,11.23-3.34,1.14-.3,2.32-.62,3.26-1.33,2.18-1.63,2.13-6.39,1.01-8.63-1.7-3.41-6.64-5.37-9.33-8.1-2.26-2.29-4.23-4.87-5.84-7.65-1.28-2.21-2.06-6.96-5.29-6.7-4.94,.39-10.7,1.67-15.14,3.94-6.78,3.48-10.33,9.55-11,17.23-.1,1.17,.08,2.41,.38,3.55,1.56,6.03,5.71,9.61,11.35,11.67,6.25,2.28,12.89,1.15,19.36-.65Zm55.63-12.2c.08-4.83-2.82-10.22-5.65-13.95-1.56-2.06-7.12-8.94-10-7.28-.85,.49-1.3,2.59-1.73,3.42-.81,1.56-1.83,3.03-2.93,4.39-1.81,2.23-3.94,4.12-6.31,5.75s-5.28,2.19-7.6,3.87c-2.47,1.78-3,5.85-2.72,8.38,.49,4.43,6.05,4.66,9.74,5.66,8.91,2.41,27.01,2.38,27.21-10.22Zm-21.55,19.96c1.54-3.92,1.43-4.62,1.36-4.64-.1-.02-16.44-4.9-19.13-4.98-2.2-.06-21.12,5.96-21.56,6.11,.34,2.6,2.43,5.75,3.32,7.39,3.19,5.85,10.32,10.49,17.96,10.04,8.03-.48,15.14-6.52,18.06-13.92Zm-43.07-80.61c-1.31,0-2.38,1.11-2.38,2.49s1.06,2.49,2.38,2.49,2.38-1.11,2.38-2.49-1.06-2.49-2.38-2.49Zm46.27,.75c-1.31,0-2.38,1.11-2.38,2.49s1.06,2.49,2.38,2.49,2.38-1.11,2.38-2.49-1.06-2.49-2.38-2.49Z"/>
  </g>
  <g id="Dark_Brown" data-name="Dark Brown">
    <path class="cls-3" d="M131.98,115.16c1.95,1.74,9.41,7.21,9.31,7.69s-5.03,6.29-6.71,8.93c-1.7,2.68-3.54,5.28-5.34,7.9-1.3,1.89-4.07,6.36-4.26,6.23-.08-.05-2.72-1.16-3.33-1.48-1.25-.67-2.5-1.41-3.5-2.43-1.42-1.45-2.21-3.47-2.73-5.4-.67-2.5-1.87-10.53-1.96-10.49-.07,.03-2.46,4.9-3.78,7.23-1.22,2.15-3.4,4.11-5.85,3.86-.4-.04-.79-.17-1.14-.36-3.58-1.96-4.67-5.67-5.15-9.25-.15-1.11-1.13-6.91-1.13-6.84,0,.09-2.38,3.51-2.89,4.27-1.19,1.76-2.8,3.35-4.99,3.7-3.18,.5-6.24-1.96-7.51-4.92-1.81-4.21-2.1-13.73-2.23-14.01-.05-.09-3.78,5.15-4.47,5.99-1.32,1.61-3.2,2.88-5.28,2.98-3.33,.16-6.07-2.77-7.1-5.94-1.19-3.68-.06-11.72-.17-11.89-1.3,2.1-4.19,14.27,2.04,18.12,8.49,5.26,13.93-5.03,13.92-5.05,.07,.13-.51,11.52,4.33,14.81,8.46,5.74,13.39-3.37,13.33-3.43,.07-.11,.99,7.84,3.13,10.54,1.36,1.71,3.32,3,5.48,3.28,4.69,.61,8.77-7.03,8.79-7.2-.02,.06,.28,3.2,.47,4.14,.58,2.78,2.01,5.3,3.85,7.46,2.78,3.26,6.94,4.43,6.94,4.37,0,.11-.76,1.67-.86,1.9-.51,1.17-1.03,2.33-1.55,3.49-.47,1.06-2.02,4.92-2.09,5.05-.08,.14-1.78,.25-3.14-.13-2.79-.8-5.65-1.68-7.38-4.01-1.21-1.62-1.95-3.56-2.28-5.55-.15-.91-.98-4.43-.81-4.67-.09,.12-3.91,6.11-8.35,6.86-3.03,.51-6.21-.24-8.14-2.63-2.62-3.25-1.49-9.24-1.52-9.31,.06,.12-3.69,2.07-4.01,2.19-1.76,.66-3.77,.78-5.52,.03-2.09-.89-3.55-2.87-4.34-5-.66-1.77-.87-3.65-1.18-5.49-.16-.92-.27-1.9-.6-2.78-.1-.25-.52-1.86-.61-1.78-.42,.85-.43,2.24-.52,3.18-.15,1.6-.13,3.25-.11,4.86,.03,3.17,1.66,6.32,4.32,8.07,3.25,2.14,7.84,2.03,10.98-.26-.24,.17,0,2.62,.03,2.99,.06,.96,.22,2,.63,2.88,1.19,2.5,3.73,4.47,6.43,5.09,6.19,1.42,11.51-4.87,11.49-4.95,.22,.08,.49,2.65,.56,2.92,.41,1.7,1.07,3.57,2.1,5.02,2.96,4.17,11.36,4.68,11.45,4.68-.08,.17-1.76,5.36-2.61,8.23-.13,.42-1.28,6.17-1.13,6.29-.14-.11-10.27-.93-12.63-4.33-1.13-1.63-2-3.46-2.23-5.43-.17-1.48-.42-4.73-.46-4.69,0,.03-2.43,3.37-3.47,4.9-1.16,1.71-2.68,3.33-4.68,3.84-3.11,.78-6.32-1.52-7.69-4.41-1.04-2.2-1.06-4.67-1.29-7.06-.07-.76-.24-5.01-.32-4.99-1.7,1.21-2.14,8.23-1.03,11.74,.85,2.69,2.74,5.11,5.31,6.29,2.49,1.14,5.53,.99,7.8-.57,.66-.46,3.93-4.48,3.87-4.49,.1,.05,.27,7.43,8.17,10.15,1.99,.68,8.11,1.08,8.15,1.27,.03,.15-2.63,6.61-3.23,8.57-8.6,28.16-6.22,59.32,4.06,86.67,2.42,6.44,5.39,12.67,8.87,18.6,2.69,4.59,5.65,10.55,9.23,14.49,.06,.07-13.75,8.32-13.84,8.36,.04-.04-68.48-161.87-80.71-191.76-2.92-7.13-3.73-26.22-3.62-28.3,.39-7.33,1.79-15.63,5.89-21.96,4.95-7.64,11.25-12.4,20.38-14.04,7.27-1.31,16.09-.6,23.32,.91,14.78,3.07,29.4,10.57,42.34,18.34,6.62,3.98,12.01,8.85,18.11,13.58,7.58,5.89,10.47,16.19,10.58,16.53,.18,.53-12.96,13.81-12.99,13.75-.04-.07-5.28-3.89-8.73-6.78-2.7-2.26-5.41-4.53-8.11-6.79-2.78-2.33-5.57-4.66-8.43-6.89-8.79-6.85-18.36-12.74-28.56-17.26-5.19-2.3-10.54-4.24-16.01-5.75-4.74-1.31-15.77-2.66-15.76-2.47-.01,.32,5.59,2.19,6.4,2.43,2.81,.84,5.73,1.43,8.53,2.27,5.53,1.66,10.95,3.67,16.23,6,10.57,4.66,20.56,10.6,29.7,17.67,4.73,3.66,9.09,7.68,13.52,11.64Zm183.86,16.85c4.62,7.07,10.02,13.19,14.03,20.72,3.73,7.03,6.41,14.61,7.9,22.43,.26,1.37,2.34,16.27,1.34,16.62,.14-.05,2.72-19.7,11.21-39.56,3.47-8.12,7.34-16.05,11.12-24.03,3.55-7.49,7.85-15.21,9.58-23.37,1.17-5.52,.92-11.54-1.85-16.45-2.97-5.27-8.58-8.71-14.47-10.06-7.08-1.62-14.61-.46-21.33,2.31-4.87,2.01-9.36,4.85-13.53,8.05-3.21,2.47-6.23,5.16-9.54,7.5,3.23,3.37,4.4,8.33,4.07,12.98-.23,3.27-1.14,6.45-2.26,9.52-.42,1.15-3.08,5.71-2.59,6.91,.06,.14,3.28,3.2,3.45,3.37,9.85-17.66,23.32-31.58,28.4-32.8-.35,.33-25.71,35.55-25.51,35.86Zm-133.97-38.83s7.64,6.06,7.9,12.42c.08,2.03-1.55,3.99-3.17,5.03-.96,.61-2.04,1.01-3.19,1.06-.95,.04-1.89-.05-2.78-.27s-1.94,.07-2.19,.21c-4.34,2.48-6.97,2.9-7.06,2.97-.11,.08,3.34,1.98,3.48,2.41,.28,.86-.7,3.5-.79,3.58,.25,0,8.48-3.95,8.57-3.7,.06,.18-2.99,5.35-3.33,5.6-.15,.11,4.68-1.7,8.51-3.73,4.16-2.21,8.53-4.11,9.17-4.41,.88-.41-7.3,7.3-7.3,7.3,2.55-.68,8.46-3.85,11.8-5.35,4.16-1.87,7.5-3.92,9.17-4.92,.85-.51-.08,1.21-2.12,3.14-1.14,1.08-7.16,6.88-6.79,6.79,.68-.17,10.02-2.61,13.75-3.91,2.21-.76,4.54-2.22,6.54-2.29,1.99-.07-9.25,4.75-8.07,5.18,1.8,.65,3.51,1.6,11.63-.93,2.22-.69,4.74-2.15,8.15-3.14,2.63-.76-9.07,8.24-8.4,8.24,12.56-.08,17.48-5.96,18.51-5.94,5.26,.08-9.29,5.52-7.97,6.16,3.12,1.52,8.31,.15,13.15-2.26,6.1-3.04,11.72-7.48,11.72-7.05,0,.25-5.94,7.13-6.03,7.22-.31,.31,3.49-.14,7.47-1.53,3.35-1.17,7.95-4.7,8.07-4.75,.04-.02-1.87,6.71-1.87,6.71,.09-.05,5.26-2.55,5.35-2.63,.03-.03-.28,1.95-.26,1.95,.12,0,6.75-1.45,9.91-2.86s6.06-3.23,7.82-6.17c2.02-3.37,3.63-11.83-1.57-12.98-2.04-.45-11.43,1.25-11.43,2.83,0,2.97-7.92,1.7-9.51,.68-1.84-1.18-1.81,4.75-9.28,.57-3.23-1.81-2.49,4.08-9.74-.45-3.15-1.97-.91,4.75-8.83,.57-4.94-2.61-3.96,3.06-9.74-1.02-.93-.65-3.35,2.65-9.51-.57-2.6-1.36-2.98,2.89-8.6-1.02-1.44-1-2.59,2.97-8.49-2.04-.82-.7-1.96,1.13-5.43,.68-1.29-.17-3.3-2.7-5.55-2.6-5.21,.23-7.92-3.85-11.66-4.75Zm-23.98,18.69c.11,.79-34.77,32.02-40.37,63.95-.42,2.37,8.66-19.7,13.24-18.34,.3,.09-6.87,14.75-7.36,15.72-3.96,7.9-7.39,15.1-9.55,23.81-2.69,10.9-3.9,22.17-3.57,33.39,.24,8.46,2.25,27.53,3.74,28.39,.1,.06,.64-3.36,.66-3.67,.69-10.97-.32-21.87,1.17-32.87,1.07-7.86,2.29-19,8.79-24.36,.9-.74-15.1,35.11-3.55,74.84,4.21,14.49,12.64,28.65,26.13,42.99,.66,.7-18-26.15-21.22-47.2-3.85-25.11,9.69-54.34,18-59.09,2.28-1.3-18.58,24.89-14.94,52.98,2.21,17.05,13.02,37.58,23.55,57.28,6.42,12.01,1.38,23.58,2.43,22.53,.68-.68,11.6-21.39,4.24-47.2-4.39-15.39-.85-46.18-.68-46.86,.25-1,1.7,16.98,4.75,43.13,1.74,14.87,10.05,27.09,18.34,41.77,7.59,13.44,7.07,45.51,7.43,46.17,.1,.01,3.26-7.21,4.46-9.67,1.93-3.95,3.6-6.23,4.47-10.24,1.74-8.04,.69-18.38,.89-26.61,.32-13.72-3-26.29-4.68-39.73,.13,1.04,2.61,3.92,3.18,5.24,1.21,2.79,2.56,5.55,3.72,8.38,2.9,7.05,3.19,14.89,3.61,22.4,.47,8.34-2.7,18.38,4.49,26.84,3.57,4.2,14.51,10.26,17.76,19.32,2.52,7.01,5.08,14.92,6.11,21.05,1.78,10.57,.97,21.24,2.04,18.34,2.38-6.45,5.43-30.56-2.72-61.47-3.94-14.95-6.41-21.42-8.49-38.03-2.72-21.73-11.87-45.1-10.36-43.47,3.06,3.28,9.74,19.69,15.45,40.07,3.04,10.83,6.53,25.67,8.83,36.68,5.63,26.95,4.29,46.7,4.58,42.22,1.59-23.92,2.27-44.31,2.51-60.9,.49-33.35-.76-51.37,.2-51.96,2.12-1.31,5.77,23.67,5.21,50.15-.61,28.63-5.47,58.89-3.62,56.37,9.28-12.68,25.29-51.94,26.49-74.71,1.21-23-3.08-32.32-2.94-34.19,.17-2.38,9.51,24.22,5.89,48.22-6.01,39.84-24.38,55.09-21.27,53.02,9.52-6.34,18.62-13.29,27.56-20.42,4.54-3.62,9.04-7.29,13.54-10.96s8.86-6.75,12.19-11.33c2.26-3.11,4.26-6.39,5.96-9.84,.85-1.72,4.78-7.43,4.31-9.07-7.24-25.36-7.79-55.96-7.07-55.58,1.39,.73,10.41,49.47,11.15,48.56,10.06-12.38,13.44-36.45,14.32-49.24,.3-4.38,.4-11.84-.06-12.34-13.17-14.54-16.53-37.81-15.9-38.6,.47-.6,16.18,33.62,16.19,32.26,.12-14.28-.51-28.07-1.19-28.98-9.27-12.36-11.77-23.77-11.6-23.66,.93,.62,12.06,17.55,12.06,17.49,0-.46,.41-31.28-7.54-46.83-10.11-19.78-20.93-29.81-20.93-29.81-.06,.45-6.17,5.84-5.66,8.9,1.84,11.02,4.38,19.14,2.04,32.94-3.46,20.39-10.66,28.03-17.15,36.67-.1,.14,3.1,10.34,3.15,11.54,.21,4.76-3.03,8.45-6.77,11.1-5.42,3.84-9.85,1.2-12.51,3.68-1.3,1.21-1.8,4.88-2.55,6.49-1.28,2.75-3.02,5.27-5.11,7.47-8.87,9.35-22.28,11.26-32.28,2.4-2.29-2.03-4.01-4.43-5.44-7.11-.56-1.05-2.48-6.54-3.67-6.56-4.55-.05-7.54,.78-12.15-1.28-6.28-2.8-11.7-8-12.35-15.05-.3-3.25,.05-13.38,3.56-15.39,1.34-.76-16.47-7.79-20.62-35.21-2.36-15.64,.74-44.1,.69-44.09-.06,.02-5.12,2.22-5.29,2.22-.08,0,.61-4.62,.61-4.62,.02,.02-4.72,.86-4.91,.86-.08,0,.04-2.19-.04-2.19-.27,0-8.23,1.66-13.58-9.12Z"/>
  </g>
</svg>